<?xml version="1.0" encoding="utf-8"?>
<!-- Generator: Adobe Illustrator 24.0.2, SVG Export Plug-In . SVG Version: 6.00 Build 0)  -->
<svg version="1.1" id="Layer_1" xmlns="http://www.w3.org/2000/svg" xmlns:xlink="http://www.w3.org/1999/xlink" x="0px" y="0px"
	 viewBox="0 0 24 24" style="enable-background:new 0 0 24 24;" xml:space="preserve">
<style type="text/css">
	.st0{fill:#FFFFFF;}
</style>
<title>icon</title>
<path class="st0" d="M4.4,5.1C4.3,2.9,6.2,1,8.5,1l0,0h7.1c2.3,0,4.1,1.9,4.1,4.1c0,1.4-0.7,2.7-1.9,3.4c1.9,1.3,2.4,3.8,1.2,5.7
	c-0.8,1.2-2.1,1.9-3.4,1.9h-0.1c-1,0-2-0.4-2.8-1.1v3.8c0,2.3-1.9,4.2-4.2,4.2s-4.1-1.8-4.1-4.1c0-1.4,0.7-2.7,1.9-3.5
	c-2-1.2-2.5-3.7-1.3-5.6c0.3-0.5,0.7-0.9,1.2-1.2C5.1,7.8,4.4,6.5,4.4,5.1z M11.4,9.2H8.5C7,9.2,5.7,10.4,5.7,12s1.2,2.8,2.8,2.8
	h2.9V9.2z M12.7,12c0,1.5,1.2,2.8,2.8,2.8l0,0h0.1c1.5,0,2.8-1.2,2.8-2.8s-1.2-2.8-2.8-2.8h-0.1C13.9,9.2,12.7,10.5,12.7,12L12.7,12
	z M8.5,16.1L8.5,16.1C7,16,5.7,17.2,5.6,18.7s1.1,2.8,2.6,2.9c0.1,0,0.2,0,0.3,0c1.6,0,2.8-1.3,2.8-2.8v-2.7H8.5z M8.5,2.3
	c-1.6,0-2.9,1.1-3,2.6s1.1,2.8,2.6,2.9c0.1,0,0.2,0,0.3,0h2.9V2.3H8.5z M12.7,7.9h2.9c1.5,0.1,2.8-1.1,2.9-2.6s-1.1-2.8-2.6-2.9
	c-0.1,0-0.2,0-0.3,0h-2.9C12.7,2.4,12.7,7.9,12.7,7.9z"/>
</svg>
