<?xml version="1.0" encoding="utf-8"?>
<!-- Generator: Adobe Illustrator 24.0.2, SVG Export Plug-In . SVG Version: 6.00 Build 0)  -->
<svg version="1.1" id="Layer_1" xmlns="http://www.w3.org/2000/svg" xmlns:xlink="http://www.w3.org/1999/xlink" x="0px" y="0px"
	 viewBox="0 0 24 24" style="enable-background:new 0 0 24 24;" xml:space="preserve">
<style type="text/css">
	.st0{fill:#FFFFFF;}
</style>
<title>icon</title>
<path class="st0" d="M11.3,12.3c0.1,0.2,0.1,0.4,0.2,0.6H9.3c0.1-0.4,0.3-0.8,0.4-1.2s0.3-0.9,0.4-1.3s0.2-0.7,0.3-1.1l0,0
	c0.1,0.2,0.1,0.4,0.2,0.7s0.1,0.5,0.2,0.8l0.2,0.8C11.1,11.8,11.2,12.1,11.3,12.3z"/>
<path class="st0" d="M18.6,2H5.4c-2,0-3.6,1.6-3.6,3.6c0,0,0,0,0,0v12.7c0,2,1.6,3.6,3.6,3.7h13.2c2,0,3.6-1.6,3.6-3.6V5.6
	C22.3,3.6,20.6,2,18.6,2C18.6,2,18.6,2,18.6,2z M14.6,16.8h-1.8c-0.1,0-0.1,0-0.1-0.1l-0.7-2H8.8l-0.6,2c0,0.1-0.1,0.1-0.1,0.1
	c0,0,0,0,0,0H6.4c-0.1,0-0.1,0-0.1-0.2l2.8-7.9c0-0.1,0.1-0.2,0.1-0.3c0-0.2,0-0.4,0-0.6c0,0,0-0.1,0.1-0.1h2.2c0,0,0.1,0,0.1,0.1
	l3.1,8.8C14.7,16.7,14.7,16.8,14.6,16.8z M17.6,16.7c0,0.1,0,0.1-0.1,0.1h-1.7c-0.1,0-0.1-0.1-0.1-0.1v-6.6c0-0.1,0-0.1,0.1-0.1h1.7
	c0.1,0,0.1,0.1,0.1,0.1L17.6,16.7z M17.4,9c-0.2,0.2-0.5,0.3-0.8,0.3c-0.3,0-0.6-0.1-0.8-0.3c-0.2-0.2-0.3-0.5-0.3-0.8
	c0-0.3,0.1-0.6,0.3-0.8c0.2-0.2,0.5-0.3,0.8-0.3c0.3,0,0.6,0.1,0.8,0.3c0.2,0.2,0.3,0.5,0.3,0.8C17.7,8.5,17.6,8.8,17.4,9z"/>
</svg>
