<?xml version="1.0" encoding="utf-8"?>
<!-- Generator: Adobe Illustrator 24.0.2, SVG Export Plug-In . SVG Version: 6.00 Build 0)  -->
<svg version="1.1" id="Layer_1" xmlns="http://www.w3.org/2000/svg" xmlns:xlink="http://www.w3.org/1999/xlink" x="0px" y="0px"
	 viewBox="0 0 24 24" style="enable-background:new 0 0 24 24;" xml:space="preserve">
<style type="text/css">
	.st0{fill:#FFFFFF;}
</style>
<title>icon</title>
<path class="st0" d="M21.9,10.3c-1,0.9-2.3,1.3-3.6,1.1c-2.8-0.2-4.8-2.7-4.5-5.4c0.1-1.3,0.8-2.5,1.8-3.4l0.5-0.4
	c-1.9,2-1.8,5.2,0.3,7.1c1.7,1.6,4.2,1.8,6.1,0.5L21.9,10.3z M20.1,14.5c-0.7,0.6-1.6,1.1-2.6,1.4c-0.9,0.3-1.9,0.4-2.9,0.3
	c-4.1-0.4-7.2-4-6.8-8.2c0.2-2,1.1-3.8,2.6-5.1l0.9-0.6c-2.7,3.1-2.4,7.8,0.7,10.6c2.5,2.2,6,2.5,8.9,0.8L20.1,14.5z M18.9,19.4
	C14.5,23.1,7.8,22.5,4,18.1S0.9,6.9,5.3,3.2l1.1-0.8c-3.9,4.3-3.6,11,0.7,14.9c3.5,3.2,8.8,3.7,12.8,1.1L18.9,19.4z"/>
</svg>
