<?xml version="1.0" encoding="utf-8"?>
<!-- Generator: Adobe Illustrator 24.0.2, SVG Export Plug-In . SVG Version: 6.00 Build 0)  -->
<svg version="1.1" id="Layer_1" xmlns="http://www.w3.org/2000/svg" xmlns:xlink="http://www.w3.org/1999/xlink" x="0px" y="0px"
	 viewBox="0 0 24 24" style="enable-background:new 0 0 24 24;" xml:space="preserve">
<style type="text/css">
	.st0{fill:#FFFFFF;}
</style>
<title>icon</title>
<path class="st0" d="M10.2,9.7c0.1,0.2,0.2,0.5,0.2,0.8c0,0.3-0.1,0.6-0.3,0.9c-0.2,0.2-0.4,0.4-0.7,0.4c-0.3,0.1-0.7,0.2-1,0.2H8
	H7.7V9.1c0.1,0,0.2,0,0.4,0h0.7c0.3,0,0.6,0.1,0.9,0.2C9.9,9.3,10.1,9.5,10.2,9.7z"/>
<path class="st0" d="M18.6,2H5.4c-2,0-3.6,1.6-3.6,3.6v12.7c0,2,1.6,3.6,3.6,3.6c0,0,0,0,0,0h13.2c2,0,3.6-1.6,3.6-3.6c0,0,0,0,0,0
	V5.6C22.3,3.6,20.6,2,18.6,2z M11.8,12.3c-0.3,0.5-0.8,0.8-1.4,1c-0.6,0.2-1.3,0.3-1.9,0.3H7.7v2.7c0,0.1,0,0.1-0.1,0.1c0,0,0,0,0,0
	H5.9c-0.1,0-0.1,0-0.1-0.1V7.5c0-0.1,0-0.1,0.1-0.1h0.5H7h1.5c0.6,0,1.2,0.1,1.8,0.3c0.4,0.2,0.8,0.4,1.1,0.7c0.3,0.3,0.5,0.6,0.6,1
	c0.1,0.4,0.2,0.7,0.2,1.1C12.3,11.1,12.1,11.7,11.8,12.3z M17.8,15.6c-0.2,0.3-0.6,0.6-1,0.8c-0.5,0.2-1,0.3-1.6,0.3
	c-0.4,0-0.8,0-1.2-0.1c-0.3-0.1-0.6-0.2-0.9-0.3c-0.1,0-0.1-0.1-0.1-0.2v-1.5c0,0,0-0.1,0-0.1s0,0,0.1,0c0.3,0.2,0.7,0.3,1.1,0.4
	c0.3,0.1,0.7,0.1,1,0.1c0.2,0,0.5,0,0.7-0.1c0.1-0.1,0.2-0.2,0.2-0.4c0-0.1-0.1-0.3-0.2-0.3c-0.3-0.2-0.5-0.3-0.8-0.4
	c-0.4-0.1-0.8-0.4-1.2-0.6c-0.3-0.2-0.5-0.4-0.6-0.7c-0.1-0.3-0.2-0.6-0.2-0.9c0-0.4,0.1-0.7,0.3-1c0.2-0.3,0.5-0.6,0.9-0.8
	c0.5-0.2,1-0.3,1.5-0.3c0.4,0,0.8,0,1.2,0c0.3,0,0.5,0.1,0.7,0.2c0,0,0.1,0,0.1,0.1c0,0,0,0.1,0,0.1v1.4c0,0,0,0,0,0.1l0,0
	c-0.1,0-0.1,0-0.2,0c-0.3-0.1-0.5-0.2-0.8-0.3c-0.3-0.1-0.7-0.1-1-0.1c-0.2,0-0.4,0-0.5,0.1c-0.1,0-0.2,0.1-0.3,0.2
	c0,0.1-0.1,0.1-0.1,0.2c0,0.1,0,0.2,0.1,0.2c0.1,0.1,0.2,0.2,0.3,0.2c0.2,0.1,0.4,0.2,0.6,0.3c0.5,0.2,0.9,0.4,1.3,0.6
	c0.3,0.2,0.5,0.4,0.7,0.7c0.1,0.3,0.2,0.6,0.2,0.9C18.2,14.8,18.1,15.2,17.8,15.6z"/>
</svg>
