<svg width="48" height="48" viewBox="0 0 48 48" fill="none" xmlns="http://www.w3.org/2000/svg">
<path fill-rule="evenodd" clip-rule="evenodd" d="M16 14V12C16 9.87827 16.8429 7.84344 18.3431 6.34315C19.8434 4.84285 21.8783 4 24 4C26.1217 4 28.1566 4.84285 29.6569 6.34315C31.1571 7.84344 32 9.87827 32 12V14H38C39.104 14 40 14.898 40 16.014V40.016C40 42.216 38.21 44 36.012 44H11.988C10.931 44 9.91725 43.5804 9.16947 42.8334C8.42169 42.0863 8.00106 41.073 8 40.016V16.016C8 14.9 8.89 14 10 14H16ZM18.4 14H29.6V12C29.6 10.5148 29.01 9.09041 27.9598 8.0402C26.9096 6.99 25.4852 6.4 24 6.4C22.5148 6.4 21.0904 6.99 20.0402 8.0402C18.99 9.09041 18.4 10.5148 18.4 12V14ZM16 16.4H10.4V40.016C10.4 40.888 11.112 41.6 11.988 41.6H36.012C36.4325 41.6 36.8358 41.4332 37.1335 41.1363C37.4312 40.8394 37.5989 40.4365 37.6 40.016V16.4H32V22H29.6V16.4H18.4V22H16V16.4Z" fill="#2C68D2"/>
</svg>
