<svg width="48" height="48" viewBox="0 0 48 48" fill="none" xmlns="http://www.w3.org/2000/svg">
<path fill-rule="evenodd" clip-rule="evenodd" d="M24 44C12.954 44 4 35.046 4 24C4 12.954 12.954 4 24 4C35.046 4 44 12.954 44 24C44 35.046 35.046 44 24 44ZM24 41.6C28.6678 41.6 33.1444 39.7457 36.4451 36.4451C39.7457 33.1444 41.6 28.6678 41.6 24C41.6 19.3322 39.7457 14.8556 36.4451 11.5549C33.1444 8.25428 28.6678 6.4 24 6.4C19.3322 6.4 14.8556 8.25428 11.5549 11.5549C8.25428 14.8556 6.4 19.3322 6.4 24C6.4 28.6678 8.25428 33.1444 11.5549 36.4451C14.8556 39.7457 19.3322 41.6 24 41.6ZM18 19.414C18.154 16.4 20.162 14 24.084 14C27.6 14 30 16.176 30 19.052C30 21.242 28.87 22.792 27.084 23.866C25.312 24.912 24.81 25.694 24.81 27.158V28.066H22.368V26.782C22.354 24.94 23.248 23.682 25.158 22.54C26.778 21.548 27.404 20.67 27.404 19.176C27.404 17.446 26.064 16.176 23.986 16.176C21.88 16.176 20.54 17.418 20.386 19.414H18ZM23.596 34.428C23.3864 34.4307 23.1783 34.3914 22.9841 34.3125C22.7898 34.2335 22.6134 34.1166 22.465 33.9684C22.3167 33.8202 22.1995 33.6439 22.1203 33.4498C22.0411 33.2556 22.0016 33.0476 22.004 32.838C22.004 31.93 22.704 31.246 23.596 31.246C24.502 31.246 25.186 31.93 25.186 32.838C25.1901 33.0479 25.1517 33.2565 25.0733 33.4513C24.9948 33.646 24.8778 33.8229 24.7294 33.9714C24.5809 34.1198 24.404 34.2368 24.2093 34.3153C24.0145 34.3937 23.8059 34.4321 23.596 34.428Z" fill="#2C68D2"/>
</svg>
