<svg width="80" height="80" viewBox="0 0 80 80" fill="none" xmlns="http://www.w3.org/2000/svg">
<path d="M75.6318 27.176L72.0798 13.912C71.9198 13.312 71.3038 12.96 70.7038 13.12L64.4558 14.792C63.3678 12.992 62.0798 11.32 60.6078 9.792C60.5598 9.744 60.5118 9.696 60.4638 9.64C60.3918 9.56 60.3118 9.488 60.2398 9.416C60.1518 9.328 60.0558 9.24 59.9678 9.144C59.9038 9.08 59.8398 9.024 59.7838 8.96C59.7678 8.944 59.7518 8.928 59.7358 8.912C59.6398 8.824 59.5518 8.736 59.4558 8.648C59.4078 8.6 59.3598 8.56 59.3118 8.512C54.0238 3.68 47.1518 1 39.9758 1C32.7998 1 28.9278 2.624 24.2558 5.696C19.7198 8.68 16.1438 12.864 13.9038 17.792C12.2958 21.336 11.4398 25.112 11.3598 29.024L5.10379 30.704C4.81579 30.784 4.56779 30.968 4.42379 31.224C4.27179 31.48 4.23179 31.792 4.31179 32.072L7.86379 45.336C7.99979 45.84 8.44779 46.168 8.94379 46.168C9.43979 46.168 9.13579 46.152 9.23179 46.128L15.4718 44.456C16.6558 46.4 18.0798 48.216 19.7278 49.864C25.1358 55.272 32.3198 58.248 39.9678 58.248C47.6158 58.248 48.8318 57.216 52.8558 55.192C56.6878 53.256 60.0958 50.432 62.7118 47.008C66.4158 42.168 68.4398 36.424 68.5838 30.336C68.5838 30.32 68.5838 30.312 68.5838 30.296V30.28C68.5838 30.264 68.5838 30.24 68.5838 30.224L74.8398 28.544C75.1278 28.464 75.3758 28.28 75.5198 28.024C75.6718 27.768 75.7118 27.456 75.6318 27.176ZM65.8078 28.648L64.1838 29.08L60.6958 30.016L59.2078 24.472L58.0798 20.272L57.7198 18.928L59.6078 18.424L62.8318 17.56L65.7998 28.656L65.8078 28.648ZM26.7758 39.104L24.3438 39.752L24.2958 39.768L22.8078 34.224L21.3358 28.72V28.68C21.3278 28.68 26.4398 27.312 26.4398 27.312L29.4078 38.408L26.7758 39.112V39.104ZM15.5278 36.176L14.0398 30.632L17.3758 29.736L19.1518 29.256L20.6398 34.8L22.1278 40.344L17.0158 41.712L15.5278 36.168V36.176ZM43.9678 34.504L38.9598 35.848L38.8558 35.872L37.3678 30.328L37.1278 29.424L35.8798 24.776L40.9918 23.408L42.4798 28.952L43.4158 32.456L43.9678 34.504ZM35.2078 30.904L36.6958 36.448L31.5838 37.816L30.0958 32.272L28.7038 27.08L28.6078 26.72L31.9918 25.816L33.7198 25.352L34.6718 28.912L35.2078 30.904ZM43.1678 22.824L48.2798 21.456L48.4798 22.2L49.7678 27L51.2558 32.544L49.6078 32.984L46.1438 33.912L43.1758 22.816L43.1678 22.824ZM53.4158 31.968L50.4478 20.872L54.0718 19.904L55.5598 19.504L55.7118 20.08L57.0398 25.048L58.5278 30.592L53.4158 31.96V31.968ZM39.9758 3.248C45.9598 3.248 51.7118 5.264 56.3598 8.952C55.8398 9.144 55.3118 9.344 54.7918 9.552C54.2558 9.76 53.7358 9.984 53.2398 10.264C52.7278 10.552 52.2398 10.896 51.7918 11.28C51.6318 11.416 51.4718 11.568 51.3438 11.728C51.2318 11.864 51.1198 12 51.0318 12.152C50.9438 12.304 50.8798 12.48 50.8158 12.64C50.7438 12.824 50.7038 13.024 50.6718 13.224C50.6238 13.56 50.5838 13.896 50.5678 14.232C50.5598 14.512 50.5598 14.792 50.5678 15.072C50.5678 15.336 50.5838 15.592 50.6158 15.848C50.6558 16.184 50.6958 16.52 50.8238 16.84C50.9038 17.04 50.9838 17.24 51.0878 17.424C51.1998 17.6 51.3278 17.776 51.4718 17.928C51.5678 18.032 51.6638 18.12 51.7758 18.192L35.8878 22.448L34.2398 22.888L33.7758 23.008C33.8558 22.912 33.9358 22.808 33.9998 22.696C34.0798 22.568 34.1438 22.424 34.1998 22.288C34.2958 22.056 34.3918 21.832 34.4718 21.6C34.5758 21.296 34.6718 20.992 34.7838 20.688C34.7918 20.664 34.7998 20.64 34.8158 20.616C34.9038 20.432 34.9998 20.256 35.1118 20.088C35.2638 19.912 35.4238 19.752 35.6078 19.608C35.9358 19.368 36.3038 19.168 36.6718 19.008C37.2318 18.784 37.8078 18.624 38.3998 18.496C39.1118 18.344 39.8238 18.216 40.5358 18.04C40.8878 17.952 41.2398 17.856 41.5838 17.728C41.9998 17.576 42.4158 17.408 42.8078 17.192C42.9758 17.096 43.1278 16.976 43.2718 16.856C43.3438 16.792 43.4158 16.72 43.4718 16.648C43.6638 16.408 43.8398 16.168 43.9678 15.88C44.1038 15.576 44.2318 15.264 44.3118 14.936C44.3758 14.68 44.4238 14.424 44.4638 14.16C44.5118 13.792 44.5598 13.432 44.5758 13.056C44.5838 12.792 44.5758 12.528 44.5678 12.256C44.5518 11.912 44.5038 11.576 44.4478 11.24C44.4158 11.032 44.3678 10.824 44.3038 10.624C44.2878 10.584 44.2718 10.536 44.2558 10.496C44.2078 10.376 44.1598 10.248 44.0958 10.136C44.0078 9.992 43.8958 9.848 43.7678 9.736C43.6318 9.616 43.4878 9.504 43.3278 9.416C43.1598 9.32 42.9758 9.248 42.7918 9.176C42.3358 9 41.8478 8.92 41.3678 8.84C40.8958 8.76 40.4158 8.696 39.9518 8.56C39.9118 8.552 39.8718 8.536 39.8318 8.52C39.7118 8.456 39.5998 8.384 39.4798 8.312C39.3438 8.224 39.2078 8.128 39.0798 8.032C38.7518 7.768 38.4398 7.48 38.1038 7.232C37.9678 7.128 37.8238 7.048 37.6718 6.976C37.3918 6.856 37.1198 6.744 36.8238 6.688C36.4478 6.616 36.0638 6.568 35.6878 6.552C35.3998 6.536 35.1038 6.552 34.8158 6.576C34.0878 6.648 33.3758 6.784 32.6718 6.944C32.0558 7.08 31.4398 7.224 30.8238 7.32C30.8078 7.32 30.7918 7.32 30.7838 7.32C30.2558 7.384 29.7278 7.384 29.2078 7.328C28.6638 7.24 28.1278 7.088 27.6158 6.88C27.4318 6.8 27.2478 6.712 27.0638 6.616C30.9998 4.392 35.4398 3.224 40.0158 3.224L39.9758 3.248ZM15.0158 21.064C15.0958 21.216 15.1678 21.368 15.2398 21.512C15.7358 22.456 16.2638 23.384 16.8638 24.272C17.1998 24.768 17.5598 25.256 17.9358 25.72C18.2478 26.104 18.5758 26.48 18.9198 26.832L19.0558 26.968L18.9198 27L13.6158 28.424C13.7278 25.896 14.1998 23.432 15.0078 21.064H15.0158ZM9.73579 43.672L6.76779 32.576L11.3998 31.336L11.8798 31.208L14.8478 42.304L14.3598 42.432L9.73579 43.672ZM51.8478 53.192C48.1438 55.064 44.1518 56.008 39.9758 56.008C32.9278 56.008 26.3038 53.264 21.3198 48.28C19.9598 46.92 18.7598 45.432 17.7438 43.848L28.6478 40.928C28.6718 40.944 28.6878 40.96 28.7118 40.984C28.9678 41.192 29.2238 41.392 29.4718 41.6C29.6558 41.752 29.8478 41.904 30.0158 42.088C30.0158 42.096 30.0318 42.104 30.0398 42.112C30.1998 42.352 30.3278 42.608 30.4478 42.872C30.7198 43.528 30.9278 44.216 31.1118 44.904C31.2158 45.28 31.3118 45.656 31.3918 46.032C31.4638 46.368 31.5198 46.712 31.5918 47.048C31.7518 47.8 31.9198 48.544 32.1198 49.28C32.3358 50.088 32.5918 50.896 32.9598 51.648C33.0958 51.92 33.2638 52.184 33.4478 52.432C33.7358 52.84 34.0398 53.24 34.3998 53.592C34.5918 53.776 34.7998 53.952 35.0158 54.096C35.0798 54.136 35.1358 54.168 35.1998 54.2C35.2958 54.24 35.4318 54.312 35.5518 54.344C35.5678 54.344 35.5758 54.344 35.5918 54.352C35.7038 54.376 35.8158 54.384 35.9278 54.4C35.9518 54.4 35.9758 54.4 35.9998 54.4C36.1038 54.4 36.2158 54.376 36.3198 54.36C36.3358 54.36 36.3438 54.36 36.3518 54.36C36.4958 54.328 36.6318 54.256 36.7598 54.192C36.8158 54.16 36.8718 54.128 36.9198 54.096C37.0558 54 37.1838 53.904 37.3118 53.792C37.5838 53.56 37.8238 53.296 38.0478 53.016C38.3438 52.656 38.6318 52.272 38.8878 51.88C39.0798 51.576 39.2558 51.264 39.3758 50.92C39.4478 50.696 39.5038 50.464 39.5518 50.24C39.6078 49.992 39.6638 49.744 39.7118 49.488C39.9198 48.464 40.0798 47.432 40.3998 46.432C40.4638 46.232 40.5358 46.04 40.6158 45.848C40.7758 45.504 40.9598 45.184 41.1758 44.88C41.6238 44.32 42.1198 43.792 42.5918 43.256C42.8638 42.952 43.1358 42.64 43.3918 42.312C43.6958 41.936 43.9998 41.544 44.2558 41.136C44.4958 40.768 44.6878 40.376 44.8478 39.968C44.8798 39.904 44.9118 39.832 44.9278 39.76C45.2158 38.976 45.5198 38.176 45.6558 37.352C45.7118 37.024 45.7598 36.688 45.7678 36.344L54.9758 33.88C55.0798 33.904 55.1838 33.928 55.2878 33.968C55.3438 34 55.3998 34.032 55.4478 34.064C55.6158 34.208 55.7678 34.376 55.9118 34.552C55.9998 34.664 56.0718 34.784 56.1358 34.912C56.2398 35.208 56.3038 35.512 56.3518 35.824C56.3998 36.224 56.4318 36.632 56.4558 37.032C56.4878 37.592 56.5198 38.16 56.5438 38.72C56.5838 39.904 56.5838 41.096 56.5198 42.28C56.4878 42.872 56.4398 43.464 56.3598 44.056C56.3358 44.208 56.3118 44.36 56.2878 44.52C56.2398 44.816 56.1678 45.112 56.1598 45.416C56.1518 45.6 56.1838 45.792 56.2158 45.976C56.2318 46.056 56.2478 46.136 56.2798 46.216C56.3678 46.472 56.4798 46.712 56.6478 46.928C56.7998 47.128 56.9598 47.36 57.1598 47.528C57.2718 47.624 57.3998 47.728 57.5358 47.8C57.6718 47.872 57.8238 47.936 57.9678 47.984C58.1918 48.056 58.4398 48.08 58.6718 48.104C58.7118 48.104 58.7518 48.104 58.7998 48.112C56.7758 50.176 54.4078 51.912 51.8398 53.216L51.8478 53.192ZM68.5438 27.92L67.9838 28.072L65.0158 16.976L65.5838 16.824L70.2158 15.584L73.1838 26.68L68.5518 27.92H68.5438Z" fill="white"/>
<path d="M78.5424 59.6162V59.9362C78.5424 61.8242 77.0064 63.3522 75.1264 63.3522H4.81444C2.92644 63.3522 1.39844 61.8162 1.39844 59.9362V59.6162C1.39844 57.7282 2.93444 56.2002 4.81444 56.2002H75.1184C77.0064 56.2002 78.5344 57.7362 78.5344 59.6162H78.5424Z" fill="white"/>
<path d="M79.9112 72.6004V77.1924C79.9112 77.8724 79.3512 78.4324 78.6712 78.4324H1.27125C0.59125 78.4324 0.03125 77.8724 0.03125 77.1924V72.6004C0.03125 71.9124 0.59125 71.3604 1.27125 71.3604H78.6712C79.3512 71.3604 79.9112 71.9204 79.9112 72.6004Z" fill="white"/>
<path d="M23.1348 66.8805C22.8228 65.5445 21.7188 62.1845 21.6788 62.0405C21.5428 61.6325 21.1588 61.3525 20.7268 61.3525H7.80685C7.44685 61.3525 7.11885 61.5445 6.93485 61.8565C6.75085 62.1685 6.75885 62.5525 6.94285 62.8645C7.50285 63.8085 9.03885 66.4965 9.35085 67.5685C9.68685 68.7125 9.82285 71.4645 9.84685 72.4245C9.86285 72.9685 10.3028 73.4005 10.8468 73.4005H22.5108C23.0548 73.4005 23.5028 72.9605 23.5108 72.4165C23.5108 72.2725 23.5588 68.9205 23.1268 66.8965C23.1268 66.8965 23.1268 66.8805 23.1268 66.8725L23.1348 66.8805ZM11.8148 71.4005C11.7508 70.1765 11.6068 68.1445 11.2708 67.0005C10.9988 66.0885 10.1828 64.5205 9.52685 63.3445H19.9908C20.3348 64.4005 20.9668 66.4085 21.1748 67.3205C21.4228 68.4965 21.4868 70.2885 21.5028 71.3925H11.8068L11.8148 71.4005Z" fill="white"/>
<path d="M73.0065 61.8644C72.8305 61.5524 72.4945 61.3604 72.1345 61.3604H59.2145C58.7825 61.3604 58.3985 61.6403 58.2625 62.0483C58.2145 62.1923 57.1185 65.5523 56.8065 66.8883C56.8065 66.8883 56.8065 66.9044 56.8065 66.9124C56.3745 68.9284 56.4225 72.2884 56.4225 72.4324C56.4305 72.9764 56.8785 73.4164 57.4225 73.4164H69.0865C69.6305 73.4164 70.0705 72.9844 70.0865 72.4404C70.1105 71.4804 70.2465 68.7284 70.5825 67.5844C70.8945 66.5124 72.4305 63.8244 72.9905 62.8804C73.1745 62.5684 73.1825 62.1844 72.9985 61.8724L73.0065 61.8644ZM68.6625 67.0083C68.3265 68.1443 68.1825 70.1843 68.1185 71.4083H58.4225C58.4385 70.3043 58.5025 68.5124 58.7585 67.3364C58.9745 66.4244 59.6065 64.4244 59.9425 63.3604H70.4065C69.7505 64.5364 68.9345 66.0964 68.6625 67.0164V67.0083Z" fill="white"/>
<path d="M46.567 61.3525H33.375C33.087 61.3525 32.807 61.4805 32.623 61.6965C32.439 61.9125 32.343 62.2085 32.383 62.4885C32.383 62.5205 32.839 65.7605 32.911 66.8165C33.007 68.1605 33.087 72.2885 33.087 72.3285C33.095 72.8725 33.543 73.3125 34.087 73.3125H45.927C46.199 73.3125 46.455 73.2005 46.647 73.0085C46.839 72.8165 46.935 72.5525 46.927 72.2805C46.927 72.2405 46.815 68.1445 46.927 66.8245C47.015 65.7765 47.543 62.5445 47.543 62.5125C47.591 62.2245 47.511 61.9285 47.319 61.7045C47.127 61.4805 46.847 61.3525 46.559 61.3525H46.567ZM44.943 66.6725C44.863 67.6725 44.887 69.9685 44.919 71.3125H35.079C35.047 69.9845 34.991 67.6645 34.919 66.6805C34.871 65.9685 34.671 64.4245 34.527 63.3525H45.399C45.231 64.4245 45.007 65.9605 44.943 66.6645V66.6725Z" fill="white"/>
</svg>
