<svg width="32" height="32" viewBox="0 0 32 32" fill="none" xmlns="http://www.w3.org/2000/svg">
<g clip-path="url(#clip0_801_1036)">
<path d="M19.7267 6.25422H12.2498C8.93461 6.25422 6.25422 8.93461 6.25422 12.2498V19.7267C6.25422 23.0419 8.93461 25.7223 12.2498 25.7223H19.7267C23.0419 25.7223 25.7223 23.0419 25.7223 19.7267V12.2498C25.7223 8.93461 23.0419 6.25422 19.7267 6.25422ZM16.3174 22.3835C12.8141 22.3835 9.96914 19.5386 9.96914 16.0353C9.96914 12.532 12.8141 9.68699 16.3174 9.68699C19.8207 9.68699 22.6657 12.532 22.6657 16.0353C22.6657 19.5386 19.8207 22.3835 16.3174 22.3835ZM22.2425 11.1918C21.349 11.1918 20.6201 10.4629 20.6201 9.56943C20.6201 8.67597 21.349 7.9471 22.2425 7.9471C23.1359 7.9471 23.8648 8.67597 23.8648 9.56943C23.8648 10.4629 23.1359 11.1918 22.2425 11.1918ZM16.3174 12.2028C14.2013 12.2028 12.4849 13.9192 12.4849 16.0353C12.4849 18.1514 14.2013 19.8677 16.3174 19.8677C18.4335 19.8677 20.1499 18.1514 20.1499 16.0353C20.1499 13.9192 18.4335 12.2028 16.3174 12.2028ZM25.4166 0H6.55988C2.93902 0 0 2.93902 0 6.58339V25.4401C0 29.061 2.93902 32 6.55988 32H25.4166C29.0375 32 31.9765 29.061 31.9765 25.4401V6.58339C32 2.93902 29.061 0 25.4166 0ZM28.05 20.6201C28.05 24.7348 24.7112 28.05 20.6201 28.05H11.3564C7.24173 28.05 3.92652 24.7112 3.92652 20.6201V11.3564C3.92652 7.24173 7.26525 3.92652 11.3564 3.92652H20.6201C24.7348 3.92652 28.05 7.26525 28.05 11.3564V20.6201Z" fill="white"/>
</g>
<defs>
<clipPath id="clip0_801_1036">
<rect width="32" height="32" fill="white"/>
</clipPath>
</defs>
</svg>
