<svg width="32" height="32" viewBox="0 0 32 32" fill="none" xmlns="http://www.w3.org/2000/svg">
<g clip-path="url(#clip0_801_1034)">
<path d="M17.9397 31.9293V20.9492H22.266L23.1594 16.0586H17.9397V14.3187C17.9397 11.7324 18.9508 10.7449 21.5841 10.7449C24.2175 10.7449 23.0654 10.7449 23.4416 10.8154V6.39515C22.7362 6.20705 20.9728 5.99544 19.9618 5.99544C14.6245 5.99544 12.1558 8.51124 12.1558 13.9661V16.0821H8.86407V20.9727H12.1558V31.6001C5.17267 29.8602 0 23.559 0 16.0586C0 8.55826 7.1712 0.046875 15.9882 0.046875C24.8053 0.046875 31.9765 7.21807 31.9765 16.0351C31.9765 24.8522 25.8398 30.9653 17.9162 31.9058L17.9397 31.9293Z" fill="white"/>
</g>
<defs>
<clipPath id="clip0_801_1034">
<rect width="32" height="32" fill="white"/>
</clipPath>
</defs>
</svg>
