<svg width="136" height="72" viewBox="0 0 136 72" fill="none" xmlns="http://www.w3.org/2000/svg">
<path fill-rule="evenodd" clip-rule="evenodd" d="M67.3762 4.2698L67.3922 4.27054L67.3849 4.27378L67.3762 4.26996L67.3762 4.2698ZM67.3762 4.2698L67.3758 4.26977L67.366 4.2655L67.3699 4.26944C67.3124 4.26602 67.2538 4.25826 67.1949 4.25045C66.9535 4.21848 66.7065 4.18575 66.5031 4.44743C67.1039 4.66561 67.238 4.63681 67.3746 4.27414L67.3775 4.27707L67.3849 4.27378C67.542 4.34231 67.6972 4.4095 67.8263 4.46539L67.9297 4.51015C67.576 4.79305 67.1538 4.78677 66.7202 4.78033C66.3835 4.77533 66.0399 4.77023 65.7162 4.90028C65.8831 4.98652 66.0523 5.02268 66.2181 5.05811C66.297 5.07497 66.3751 5.09167 66.4518 5.11352C66.5474 5.14077 66.6482 5.16388 66.7498 5.18715C67.0486 5.25564 67.3537 5.32558 67.5511 5.50695C68.0223 5.93931 68.584 6.10796 69.1498 6.2778L69.1501 6.27789C69.2591 6.31062 69.3682 6.3434 69.4769 6.37811C69.5609 6.40422 69.6628 6.37421 69.7645 6.34427C69.8109 6.33061 69.8572 6.31697 69.9018 6.30868L69.902 6.30433C69.9036 6.27784 69.9051 6.25276 69.9051 6.22768C69.978 6.26218 70.0509 6.29725 70.1207 6.33082L70.1215 6.33119C70.1684 6.3538 70.214 6.37571 70.2572 6.3963L70.4279 6.23685C70.5148 6.15555 70.6035 6.07268 70.7068 5.97642C70.6552 5.94466 70.6045 5.91425 70.5547 5.88437C70.4385 5.8147 70.3272 5.74795 70.2208 5.67391C70.1209 5.60455 70.026 5.52767 69.9313 5.45099L69.9312 5.45092C69.8928 5.4198 69.8545 5.38871 69.8158 5.35817L69.8329 5.32952C69.8464 5.30672 69.8596 5.28451 69.8737 5.2623C70.0244 5.31133 70.1729 5.38734 70.3222 5.4638C70.7872 5.70182 71.2607 5.94424 71.8375 5.39124C71.7248 5.33818 71.6155 5.28481 71.5081 5.23237L71.5077 5.23214C71.2639 5.11309 71.0298 4.99879 70.7878 4.90358L70.7448 4.88672C70.4076 4.75464 70.0838 4.62783 70.1266 4.1283C70.5506 4.17581 70.9775 4.22429 71.406 4.27295L71.4063 4.27299L71.4067 4.27303C71.7682 4.31408 72.1308 4.35526 72.4938 4.39609C72.4541 4.52668 72.4227 4.54983 72.388 4.56801C72.3279 4.59882 72.2536 4.62804 72.1794 4.65724C72.0146 4.72205 71.8499 4.78682 71.8408 4.86887C71.8177 5.06889 71.9582 5.33503 72.1103 5.49868C72.4475 5.85905 72.8145 6.19958 73.2079 6.49713C73.4187 6.65667 73.6762 6.75852 73.9295 6.85874C73.9702 6.87482 74.0107 6.89086 74.0509 6.90709C74.1791 6.95904 74.3133 6.99697 74.4473 7.03488C74.5778 7.07177 74.7081 7.10863 74.8328 7.15836C75.3668 7.36995 75.5817 7.26746 75.7338 6.69385C75.8164 6.38307 76.2545 6.10701 76.5818 6.08552C76.8567 6.06618 77.129 6.02364 77.4016 5.98107C77.5716 5.95451 77.7417 5.92795 77.9125 5.90699C77.9902 5.89728 78.071 5.8819 78.1524 5.8664C78.3757 5.8239 78.6036 5.78052 78.7853 5.85079C80.1123 6.36169 81.4276 6.90348 82.7432 7.44538L82.7433 7.44542C83.0665 7.57855 83.3897 7.71169 83.7131 7.84438C83.7923 7.87629 83.8642 7.92651 83.9449 7.98286L83.9451 7.98299C83.9855 8.01125 84.0282 8.04105 84.0751 8.07085C83.9346 8.24607 83.8288 8.37832 83.7296 8.5023C83.7699 8.55419 83.8095 8.60591 83.8489 8.65728C84.1444 9.04279 84.425 9.40893 84.8306 9.68754C85.6042 10.2182 85.7348 10.2595 86.1778 9.75697C86.3385 9.86219 86.5196 9.93657 86.701 10.0111C87.0925 10.1719 87.4856 10.3334 87.6788 10.8067C87.5664 10.7951 87.4639 10.7571 87.3763 10.6959C87.2986 10.6416 87.2231 10.5838 87.1477 10.5261L87.1476 10.526C87.0418 10.445 86.9361 10.364 86.8241 10.2926C86.7713 10.2595 86.6307 10.2678 86.6076 10.3041C86.5646 10.3719 86.5398 10.5008 86.5778 10.5604C86.6539 10.6843 86.7696 10.7901 86.882 10.8877C87.0559 11.0391 87.2335 11.1867 87.4134 11.3362L87.4135 11.3363C87.4988 11.4071 87.5845 11.4783 87.6705 11.5505C87.6281 11.597 87.5782 11.64 87.5296 11.6818C87.345 11.8405 87.1792 11.9831 87.5168 12.2448H87.2606C87.2421 12.3492 87.225 12.4522 87.208 12.5539L87.208 12.5542L87.208 12.5543L87.2079 12.5544L87.2079 12.5545L87.2079 12.5546L87.2079 12.5548C87.1597 12.8441 87.1132 13.1232 87.0424 13.397C87.0209 13.4747 86.844 13.5375 86.7299 13.5607C86.653 13.5761 86.5709 13.5651 86.4701 13.5517C86.4193 13.5449 86.3638 13.5375 86.3018 13.5326L86.3931 13.7118C86.4374 13.7985 86.4697 13.8619 86.4968 13.9161C86.375 13.9444 86.258 13.9718 86.1437 13.9986L86.1434 13.9987C85.9912 14.0344 85.844 14.0689 85.6968 14.1029C85.6951 14.1657 85.6918 14.2285 85.6885 14.2913C85.7434 14.3164 85.7977 14.3463 85.8519 14.3762C85.9691 14.4408 86.086 14.5053 86.2092 14.5211C87.2705 14.655 87.94 15.265 88.1863 16.3973C88.0199 16.4123 87.8541 16.431 87.6887 16.4496C87.3053 16.4929 86.9242 16.5358 86.5431 16.5312C86.115 16.5263 85.7827 16.6486 85.4885 16.9379C85.493 16.9515 85.4965 16.9655 85.4998 16.9792C85.5075 17.0104 85.5147 17.0396 85.5331 17.0569C86.11 17.6173 86.4605 18.2752 86.4605 19.1001C86.4588 19.2092 86.5233 19.3894 86.5977 19.4142C86.9151 19.5166 87.001 19.7729 87.0721 20.039C87.1415 20.2952 87.3333 20.3597 87.5102 20.2506C87.9582 19.9729 88.2557 20.1878 88.5466 20.4936C88.7086 20.6639 88.8492 20.6506 89.0475 20.5167C89.2147 20.4033 89.3975 20.3138 89.5807 20.2241L89.5808 20.2241C89.7019 20.1648 89.8231 20.1054 89.9402 20.039C90.0542 19.9762 90.2278 19.8671 90.2278 19.7795C90.229 19.4584 90.2024 19.1373 90.1757 18.8162C90.1668 18.7091 90.158 18.6021 90.1501 18.4951C90.1434 18.4087 90.1247 18.3134 90.1061 18.2181L90.106 18.218C90.065 18.0086 90.0241 17.7997 90.1104 17.6884C90.4377 17.2668 90.5105 16.9147 90.1567 16.5015C90.1472 16.4898 90.1553 16.462 90.1675 16.4197C90.1744 16.3959 90.1826 16.3673 90.1898 16.3345C90.2493 16.3402 90.3106 16.3486 90.3722 16.3571C90.773 16.4121 91.191 16.4695 91.2626 15.8105C91.3225 15.8471 91.3753 15.8771 91.4228 15.9041C91.5104 15.9539 91.5795 15.9932 91.6395 16.0436C91.7808 16.1618 91.9223 16.2798 92.0638 16.3979L92.0649 16.3989L92.0696 16.4028L92.0766 16.4086C92.7323 16.9557 93.3885 17.5033 94.0282 18.0686C94.1692 18.193 94.2779 18.3542 94.3978 18.532C94.4578 18.621 94.5207 18.7143 94.5919 18.8091C94.5148 18.8202 94.453 18.8275 94.4013 18.8337C94.3133 18.8443 94.254 18.8514 94.1968 18.867C93.9323 18.9381 93.8877 19.1282 94.0646 19.2918C94.216 19.433 94.3954 19.5439 94.575 19.6549C94.6541 19.7038 94.7333 19.7527 94.8101 19.8043C94.8205 19.7958 94.831 19.7874 94.8416 19.7791L94.8654 19.7605C94.884 19.746 94.9026 19.7316 94.9208 19.7167C94.8081 19.5021 94.8156 19.2648 94.8231 19.0274C94.8339 18.6869 94.8448 18.3458 94.501 18.0702C94.9076 18.0289 94.7985 17.8718 94.6249 17.7214C94.3693 17.5001 94.1122 17.2803 93.8551 17.0605L93.8544 17.0598C93.3934 16.6657 92.9322 16.2714 92.4793 15.8683C92.3244 15.7304 92.1927 15.5654 92.0609 15.4003L92.0609 15.4003C92 15.324 91.9391 15.2477 91.8759 15.1741C91.8941 15.1575 91.9123 15.1414 91.9305 15.1253C91.9487 15.1092 91.9668 15.093 91.985 15.0765L92.0098 15.0907L92.0377 15.106L92.0655 15.121L92.0655 15.121C92.1195 15.15 92.1735 15.179 92.223 15.2154C92.3703 15.3227 92.518 15.4294 92.6656 15.536L92.6658 15.5362C93.141 15.8795 93.6158 16.2225 94.0761 16.5858C94.2451 16.7185 94.3871 16.8848 94.5293 17.0512L94.5293 17.0513L94.5294 17.0513L94.5294 17.0514L94.5295 17.0514C94.6014 17.1356 94.6734 17.2199 94.7489 17.2999C94.8101 17.3647 94.8711 17.4297 94.9321 17.4947L94.9324 17.495C95.1512 17.7281 95.3699 17.9611 95.5986 18.1859C95.7521 18.3371 95.9133 18.4819 96.0745 18.6267L96.0745 18.6268C96.3786 18.9 96.6826 19.1731 96.9343 19.4885C97.1963 19.8161 97.4097 20.1815 97.6233 20.5471C97.7439 20.7535 97.8645 20.96 97.9939 21.1598C98.0356 21.2229 98.1133 21.2621 98.1915 21.3017C98.2281 21.3202 98.2649 21.3387 98.2981 21.3598C98.2981 21.3387 98.2982 21.3176 98.2984 21.2965L98.2992 21.2358C98.3003 21.1532 98.3014 21.0705 98.2981 20.9879C98.2969 20.9609 98.2808 20.934 98.265 20.9076L98.2649 20.9075C98.2608 20.9006 98.2566 20.8937 98.2528 20.8868L98.2491 20.88L98.2468 20.8755C96.9376 18.2206 95.3424 15.7526 93.3818 13.5342C86.7415 6.02271 78.4035 2.04379 68.3843 1.6206C65.2616 1.49001 62.1754 1.84046 59.142 2.5926C53.2174 4.06217 48.045 6.90875 43.6214 11.1108C40.6376 13.9458 38.2473 17.2172 36.4438 20.9151C36.402 20.9998 36.4034 21.1053 36.4048 21.211C36.4055 21.2601 36.4062 21.3093 36.4025 21.3565C36.4433 21.3255 36.4841 21.2948 36.5249 21.2642C36.6013 21.2068 36.6775 21.1497 36.7529 21.0904C36.7671 21.0785 36.7762 21.06 36.7851 21.0419L36.7851 21.0419C36.7886 21.0347 36.7921 21.0275 36.7959 21.0209C38.5085 18.0537 40.6459 15.4303 43.1916 13.1375C43.2687 13.0681 43.3473 13.0001 43.4259 12.9322C43.4652 12.8982 43.5046 12.8642 43.5437 12.83C43.5081 12.985 43.4414 13.1137 43.3763 13.2393L43.3763 13.2394L43.3763 13.2394C43.3476 13.2946 43.3193 13.3493 43.2941 13.4053C43.2563 13.4894 43.2096 13.5758 43.1625 13.6629L43.1625 13.663C43.0366 13.8959 42.9083 14.1332 42.942 14.3426C43.0098 14.7691 42.8891 15.0914 42.737 15.4435C42.7032 15.522 42.6678 15.6 42.6323 15.6779C42.4357 16.1106 42.2395 16.5426 42.3221 17.0552C42.3403 17.171 42.2345 17.3611 42.1287 17.4305C41.846 17.6156 41.8295 17.8338 41.9667 18.1C42.1204 18.3992 42.0989 18.6637 41.9006 18.948C41.8229 19.0588 41.8229 19.2902 41.8857 19.4175C41.959 19.5663 42.0685 19.6983 42.2083 19.8668L42.2083 19.8669L42.2084 19.8669L42.2086 19.8671C42.2737 19.9456 42.3453 20.0319 42.4229 20.1316C42.434 20.0262 42.4449 19.9336 42.4548 19.8495C42.4745 19.6831 42.4902 19.5498 42.4957 19.4158C42.4979 19.3571 42.4887 19.2974 42.4795 19.2378C42.468 19.1633 42.4565 19.0891 42.4676 19.0174C42.5618 18.3826 42.6659 17.7479 42.7783 17.1147C42.7887 17.0558 42.798 16.9964 42.8073 16.9367C42.8662 16.5593 42.9267 16.1718 43.2792 15.8435C43.2821 15.9028 43.2896 15.9573 43.2964 16.0063V16.0063C43.3093 16.0995 43.3195 16.1728 43.2891 16.2204C42.9526 16.7554 43.0368 17.3139 43.1211 17.8738L43.1212 17.8739C43.1317 17.9438 43.1422 18.0136 43.1519 18.0834C43.1564 18.1191 43.1512 18.1562 43.146 18.1935C43.1416 18.2253 43.1372 18.2572 43.1387 18.2884C43.1435 18.3802 43.1449 18.4729 43.1464 18.5657V18.5659C43.15 18.7941 43.1536 19.0228 43.2065 19.2389C43.3205 19.7051 43.3486 20.1432 43.1949 20.6126C43.1112 20.866 43.076 21.1344 43.0425 21.3904C43.0276 21.5036 43.0131 21.6143 42.9949 21.7202C43.2902 21.7202 43.5774 21.7207 43.8588 21.7213C44.5431 21.7226 45.1935 21.7239 45.8448 21.7169C46.4399 21.7103 46.5027 21.6012 46.5903 20.9978C46.6531 20.573 46.7953 20.1547 46.9441 19.7497C47.0379 19.4948 47.2085 19.2844 47.3796 19.0732C47.6002 18.801 47.8218 18.5276 47.8813 18.1562C47.8979 18.057 48.0252 17.9512 48.1276 17.895C48.2779 17.8129 48.4335 17.7393 48.589 17.6659C48.8372 17.5486 49.0849 17.4315 49.3096 17.2801C49.7212 17.0023 50.1394 17.0255 50.5676 17.1296C50.8982 17.2089 51.2227 17.3114 51.5569 17.4171L51.557 17.4171L51.5572 17.4171L51.5573 17.4172L51.5581 17.4174C51.7113 17.4659 51.8667 17.5149 52.0256 17.5627C52.0917 17.1643 52.2719 16.885 52.6174 16.9445C52.73 16.9638 52.8454 16.9763 52.9612 16.9888C53.3398 17.0298 53.7238 17.0713 54.039 17.3561C54.1431 17.4503 54.3316 17.4983 54.4754 17.4867C54.7961 17.4586 55.2044 17.7545 55.1085 18.052C54.9118 18.6571 55.0688 19.1893 55.3036 19.7249C55.3581 19.8473 55.4722 20.0522 55.5284 20.0423C55.6954 20.0159 55.8904 19.9365 55.9962 19.8109C56.388 19.3513 56.426 18.7943 56.3781 18.214C56.3351 17.6966 56.3334 17.1478 56.869 16.8651C57.4245 16.5709 58.0113 16.3295 58.5998 16.108C58.9634 15.9715 59.3356 15.8587 59.7076 15.7459C59.9258 15.6797 60.144 15.6136 60.3603 15.5427C60.6529 15.4468 60.7504 15.2336 60.7157 14.9277C60.6985 14.7733 60.7028 14.6164 60.707 14.4594C60.7089 14.3896 60.7107 14.3197 60.7107 14.25H60.8281V14.7823C60.8438 14.7905 60.8591 14.7988 60.8744 14.8071L60.896 14.8187L60.9207 14.8319C61.1786 14.5756 61.4348 14.3194 61.7009 14.0533C61.7869 14.2632 61.9406 14.207 62.0944 14.0103C62.3671 13.6615 62.7076 13.478 63.1639 13.5408C63.2362 13.551 63.3116 13.5395 63.3869 13.5281L63.3869 13.5281C63.4218 13.5228 63.4567 13.5175 63.4912 13.5144C63.473 13.4598 63.4548 13.4053 63.4416 13.364C63.9127 13.4069 64.4037 13.4499 64.8946 13.4929L64.9046 13.3937C64.8629 13.3564 64.821 13.319 64.7701 13.2737C64.7037 13.2147 64.6221 13.1421 64.5062 13.0383C64.631 12.9851 64.7465 12.9259 64.8563 12.8696L64.8564 12.8696C65.081 12.7544 65.2816 12.6516 65.4881 12.6383C66.073 12.6004 66.6613 12.6074 67.2493 12.6145L67.2495 12.6145C67.4112 12.6164 67.5729 12.6184 67.7345 12.6194C67.682 12.6287 67.631 12.6459 67.5858 12.673C67.4833 12.7341 67.3313 12.8895 67.3527 12.9424C67.4023 13.0631 67.5313 13.1672 67.6519 13.2317C67.6948 13.2547 67.7569 13.2387 67.821 13.2221C67.8582 13.2125 67.8961 13.2027 67.9313 13.2003C68.1408 13.1863 68.35 13.1733 68.5592 13.1604L68.5595 13.1603L68.5598 13.1603L68.56 13.1603L68.5603 13.1603L68.5606 13.1603C69.0196 13.1318 69.478 13.1033 69.9365 13.0647C70.1922 13.0432 70.4463 13.0036 70.6951 12.9649C70.8082 12.9473 70.9202 12.9298 71.0308 12.9143C70.9556 12.6689 70.9013 12.4899 70.8474 12.3116L70.8471 12.3107L70.8468 12.3099L70.8457 12.306C70.6942 12.311 70.5583 12.3932 70.4217 12.4759C70.1959 12.6126 69.9682 12.7504 69.6654 12.5424C69.7107 12.4764 69.7529 12.4134 69.8016 12.3409L69.8439 12.2779C69.4108 12.1423 69.0174 12.02 68.5859 11.8861C68.5991 11.8729 68.6152 11.8577 68.633 11.8408L68.634 11.8398L68.6343 11.8395L68.6344 11.8395C68.6926 11.7843 68.7703 11.7107 68.8355 11.6266C68.9058 11.5364 68.9661 11.4379 69.0265 11.3393C69.0513 11.2988 69.0762 11.2583 69.1017 11.2183C69.047 11.1895 68.9929 11.1596 68.9388 11.1297L68.9387 11.1297C68.8064 11.0566 68.6743 10.9836 68.5347 10.9273C68.4565 10.8963 68.3608 10.9027 68.269 10.9088C68.2482 10.9102 68.2275 10.9115 68.2074 10.9125C67.9285 10.9242 67.6503 10.9378 67.3719 10.9513L67.3715 10.9514L67.3712 10.9514L67.3708 10.9514L67.3704 10.9514L67.3701 10.9514L67.3697 10.9514L67.3693 10.9515L67.369 10.9515L67.3686 10.9515L67.3682 10.9515L67.3679 10.9515L67.3675 10.9515L67.3671 10.9516L67.3668 10.9516L67.3664 10.9516L67.3661 10.9516L67.3658 10.9516C67.1775 10.9608 66.9892 10.97 66.8006 10.9786C66.9869 10.9386 67.1721 10.8844 67.3567 10.8304L67.3567 10.8304C67.9667 10.6518 68.5702 10.4751 69.1843 10.8215C69.1871 10.8452 69.1871 10.8719 69.1871 10.8977C69.1871 10.9492 69.1871 10.9973 69.2091 11.0116C69.5381 11.2282 69.8737 11.4447 70.3778 11.4679L70.2606 11.2937C70.2008 11.205 70.1568 11.1396 70.1101 11.0695C70.2566 11.0912 70.3995 11.1169 70.5399 11.1421C70.8491 11.1978 71.1462 11.2512 71.4441 11.2546C71.9384 11.2605 72.4354 11.2078 72.9292 11.1554L73.117 11.1356C73.3038 11.1158 73.517 11.0678 73.6509 10.9538C73.7501 10.8711 73.8195 10.5653 73.7666 10.5207C73.4344 10.2413 73.0823 9.97518 72.702 9.76689C72.5841 9.7021 72.4558 9.64859 72.3274 9.59505C71.9645 9.44368 71.6007 9.29201 71.4689 8.88416C71.3336 8.46534 71.0663 8.17343 70.795 7.87716L70.7948 7.87692L70.7946 7.87674L70.7946 7.87666L70.7945 7.87656L70.7944 7.87645L70.7943 7.87639C70.7211 7.79638 70.6475 7.71604 70.5762 7.63279C70.3745 7.3964 70.2076 7.34681 69.9117 7.48566C69.6356 7.61626 69.31 7.69726 69.0042 7.70387C68.3677 7.71709 68.0603 7.35011 68.1231 6.72856C68.0566 6.69977 67.9841 6.67644 67.9115 6.65308L67.9114 6.65305C67.7548 6.60265 67.5976 6.55204 67.4982 6.44589C67.0549 5.97507 66.4889 5.89131 65.9222 5.80745C65.7746 5.78561 65.627 5.76377 65.4815 5.73507C65.2782 5.69375 65.1244 5.73177 65.0385 5.97807C64.9095 6.34505 64.683 6.64426 64.2582 6.71864C64.252 6.71968 64.249 6.7383 64.2448 6.76468C64.2423 6.78034 64.2394 6.79874 64.2351 6.81783C64.255 6.83328 64.2775 6.84799 64.3005 6.86303C64.3538 6.89786 64.4099 6.93449 64.4434 6.98644C64.4639 7.01789 64.4873 7.05089 64.5112 7.08465L64.5113 7.08475C64.6032 7.21426 64.703 7.35503 64.6781 7.46252C64.6467 7.59807 64.4202 7.71875 64.2566 7.78652C64.0846 7.8576 63.883 7.88571 63.6929 7.89066C63.2383 7.90554 62.9209 8.02126 62.8779 8.56677C62.8548 8.8792 62.4167 9.05773 62.0844 8.9635C61.8547 8.89903 61.7092 8.51718 61.815 8.22954C61.8562 8.11554 61.9061 8.00439 61.9607 7.88251L61.9609 7.88209C61.9894 7.81853 62.0192 7.75205 62.0497 7.68073C61.973 7.66069 61.9039 7.64344 61.8398 7.62745L61.8393 7.62733L61.8393 7.62732L61.8392 7.6273C61.7184 7.59716 61.6156 7.57151 61.5141 7.54022C61.4136 7.50884 61.3064 7.48444 61.199 7.45999C60.9443 7.40201 60.6883 7.34374 60.5173 7.19142C60.0869 6.80996 59.5868 6.62869 59.0764 6.44365L58.9552 6.3996C58.9324 6.39201 58.9125 6.37444 58.8902 6.35485C58.8786 6.34459 58.8663 6.33378 58.8527 6.32356L58.8653 6.28285L58.8654 6.28265C58.8972 6.18005 58.9276 6.08162 58.9568 5.98964L58.7808 5.84504L58.6047 5.70036C59.3453 4.96475 60.9108 4.46222 62.7853 4.33989C62.7143 4.71844 62.8614 4.8606 63.225 4.83415C63.4879 4.81538 63.753 4.82925 64.0176 4.8431C64.0791 4.84632 64.1406 4.84953 64.202 4.85234C64.3068 4.85684 64.41 4.87287 64.5133 4.8889L64.5134 4.88891C64.5616 4.89639 64.6098 4.90388 64.6583 4.91019C64.6665 4.892 64.6744 4.87338 64.6822 4.85477C64.6901 4.83619 64.6979 4.81761 64.7062 4.79944L64.0615 4.25393C65.0533 4.12003 66.0138 4.06879 66.9742 4.04895C67.0676 4.0467 67.1625 4.11417 67.258 4.18199C67.2982 4.21058 67.3385 4.23924 67.3789 4.26275L67.3762 4.2698ZM88.4099 11.3176C88.3636 11.3228 88.3131 11.3285 88.2562 11.3339L88.344 11.0534L88.4392 10.7488C88.4897 10.7746 88.5375 10.7955 88.5816 10.8148C88.6703 10.8536 88.7444 10.8859 88.7962 10.9389C88.8692 11.013 88.9243 11.1065 88.9791 11.1996L88.9792 11.1997C89.0026 11.2395 89.0261 11.2793 89.0508 11.3175C89.0214 11.3156 88.9921 11.3136 88.9627 11.3116C88.8598 11.3046 88.757 11.2976 88.6541 11.2976C88.579 11.2987 88.5032 11.3072 88.4099 11.3176ZM29.9308 25.8727V34.1145L29.8688 34.04C29.752 33.8998 29.6788 33.8118 29.6068 33.7214L28.858 32.7783L28.8573 32.7775L28.8567 32.7767L28.856 32.7758L28.8554 32.775L28.8547 32.7742L28.8541 32.7734L28.8534 32.7726L28.8528 32.7718L28.8521 32.7709L28.8515 32.7701L28.8508 32.7693L28.8502 32.7685L28.8495 32.7677L28.8494 32.7675L28.8492 32.7673L28.849 32.7671L28.8489 32.7669L28.8487 32.7667L28.8486 32.7665L28.8484 32.7663L28.8483 32.7661L28.8481 32.7659L28.848 32.7657L28.8478 32.7655L28.8477 32.7653L28.8475 32.7651L28.8473 32.7649L28.8472 32.7647L28.847 32.7645C27.0738 30.531 25.3004 28.2972 23.5169 26.071C23.3979 25.9239 23.1697 25.7702 22.9978 25.7768C22.3862 25.801 21.7752 25.8456 21.1641 25.8902H21.1641H21.1641H21.164H21.164H21.164H21.1639H21.1639H21.1639H21.1639H21.1638H21.1638H21.1638H21.1637H21.1637H21.1637H21.1637H21.1636H21.1636H21.1636H21.1635H21.1635H21.1635H21.1635H21.1634H21.1634H21.1634H21.1633H21.1633H21.1633C20.7737 25.9186 20.3841 25.947 19.9942 25.9702C19.6454 25.99 19.4983 26.0991 19.5033 26.4876C19.5192 27.8431 19.517 29.1986 19.5147 30.5541C19.514 31.0286 19.5132 31.503 19.5132 31.9774C19.5132 32.7934 19.5135 33.6095 19.5138 34.4256V34.4259V34.4261V34.4263V34.4265V34.4268V34.427V34.4272V34.4275V34.4277V34.4279V34.4282V34.4284V34.4286V34.4288V34.4291V34.4293V34.4295V34.4298V34.43V34.4302V34.4304V34.4307V34.4309V34.4311V34.4314V34.4316V34.4318V34.432V34.4323C19.5147 36.8877 19.5157 39.3438 19.5082 41.7999C19.5066 42.1404 19.5892 42.2562 19.9545 42.2148C20.9513 42.1041 21.9514 42.0115 22.9532 41.9619C23.34 41.9437 23.3913 41.7933 23.3913 41.4627C23.3824 39.2413 23.3832 37.0209 23.3841 34.8V34.7999V34.7997V34.7996V34.7994V34.7993V34.7992V34.799V34.7989V34.7988V34.7986V34.7985V34.7983V34.7982V34.7981V34.7979V34.7978V34.7977V34.7975V34.7974V34.7972V34.7971V34.797V34.7968V34.7967V34.7966V34.7964V34.7963V34.7961V34.796C23.3844 34.1293 23.3846 33.4625 23.3846 32.7957V32.3064C23.4424 32.3705 23.4921 32.4236 23.536 32.4705C23.6065 32.5459 23.662 32.6052 23.7119 32.6684L24.8497 34.1049C26.6907 36.429 28.5313 38.7526 30.3639 41.0841C30.5755 41.3536 30.792 41.461 31.1309 41.4296C31.883 41.3602 32.6385 41.3106 33.3939 41.2825C33.7064 41.2709 33.8353 41.1751 33.8353 40.8494C33.8287 35.7183 33.8287 30.5855 33.8353 25.4544C33.8353 25.1321 33.7295 25.0164 33.4005 25.0412C32.455 25.1106 31.5061 25.1635 30.5589 25.2131L30.535 25.2144C30.2365 25.23 30.0854 25.2379 30.009 25.3175C29.9308 25.399 29.9308 25.5556 29.9308 25.8727ZM89.4244 40.6164L85.6439 34.2752H85.6406L85.7837 34.211C85.89 34.1633 85.9847 34.1209 86.0786 34.0769C87.3069 33.4983 88.1168 32.5709 88.4739 31.2485C88.7252 30.3162 88.7616 29.3789 88.6277 28.43C88.3185 26.2414 86.93 24.5057 84.457 24.299C83.6486 24.2312 82.837 24.2081 82.0253 24.1899C80.841 24.1633 79.6561 24.1418 78.4713 24.1202L78.4698 24.1202L78.4684 24.1202L78.4669 24.1202L78.4654 24.1201L78.464 24.1201L78.4625 24.1201L78.461 24.12L78.4596 24.12L78.4581 24.12L78.4566 24.12L78.4552 24.1199L78.4537 24.1199L78.4522 24.1199L78.4508 24.1198L78.4493 24.1198L78.4478 24.1198L78.4464 24.1198L78.4449 24.1197L78.4434 24.1197L78.442 24.1197L78.4405 24.1196L78.4391 24.1196L78.4377 24.1196L78.4362 24.1196L78.4348 24.1195L78.4333 24.1195L78.4319 24.1195L78.4304 24.1194C77.4956 24.1025 76.5608 24.0855 75.6263 24.0659C75.3569 24.061 75.2709 24.1701 75.2709 24.4346C75.2775 29.5954 75.2775 34.7563 75.2709 39.9171C75.2709 40.2064 75.3701 40.2973 75.6528 40.299C76.6578 40.3056 77.6629 40.3221 78.6663 40.3618C79.0349 40.3767 79.1391 40.2527 79.1358 39.8923C79.1288 39.1541 79.1294 38.4155 79.1301 37.6768V37.6751C79.1308 36.8315 79.1315 35.9879 79.1209 35.1448C79.1159 34.7579 79.2069 34.5992 79.6218 34.6307C80.1706 34.6736 80.7227 34.6703 81.2732 34.6588C81.5542 34.6538 81.7162 34.7464 81.8584 34.9976C82.3707 35.8979 82.8889 36.7941 83.4071 37.6903L83.4079 37.6917L83.4087 37.6931L83.409 37.6936C83.8817 38.511 84.3542 39.3283 84.8223 40.1486C84.9694 40.4064 85.1413 40.5189 85.4405 40.5238C86.2309 40.5374 87.0213 40.561 87.8117 40.5846L87.8126 40.5847C88.1774 40.5956 88.5422 40.6065 88.907 40.6164C88.9887 40.6184 89.0698 40.6179 89.1799 40.6173H89.1799H89.18H89.1801H89.1802H89.1803H89.1804H89.1811C89.2489 40.6169 89.3277 40.6164 89.4244 40.6164ZM81.2368 27.6316V27.7291V27.7308C81.4166 27.7308 81.5967 27.7284 81.7769 27.7259H81.7772H81.7774H81.7776H81.7778H81.778H81.7782C82.1757 27.7206 82.5737 27.7153 82.9692 27.7357C84.0123 27.7903 84.6272 28.4647 84.6272 29.5111C84.6272 30.5592 84.0553 31.2005 82.9825 31.222C81.9576 31.2419 80.9303 31.2034 79.9038 31.1649L79.9035 31.1649C79.733 31.1585 79.5625 31.1521 79.392 31.146C79.2994 31.1427 79.1358 30.9807 79.1341 30.8898C79.1227 30.2664 79.1224 29.6423 79.1221 29.0184C79.1219 28.6514 79.1217 28.2843 79.1192 27.9176C79.1176 27.663 79.2564 27.6283 79.4614 27.6299C79.8841 27.6335 80.3068 27.6328 80.7295 27.6321C80.8986 27.6319 81.0677 27.6316 81.2368 27.6316ZM60.0198 32.1957V24.6396C60.0198 24.0841 60.0231 24.0742 60.562 24.0725C62.1509 24.0677 63.7398 24.0643 65.3287 24.061C67.5534 24.0562 69.7781 24.0515 72.0029 24.0428C72.3203 24.0428 72.4442 24.1387 72.4376 24.4676C72.4211 25.3338 72.4128 26.2017 72.4409 27.0679C72.4542 27.4696 72.2888 27.5506 71.9301 27.5489C69.7275 27.5401 67.5249 27.5418 65.3212 27.5434L64.4947 27.544C63.8649 27.544 63.8649 27.5473 63.8649 28.1688C63.8649 28.3307 63.8663 28.4926 63.8677 28.6545V28.6547C63.8711 29.0432 63.8746 29.4317 63.8582 29.8202C63.845 30.1575 63.9508 30.2732 64.2996 30.2682C65.1378 30.2581 65.9759 30.2574 66.8141 30.2568C67.6141 30.2562 68.4141 30.2556 69.2142 30.2467C69.5712 30.2434 69.7018 30.3476 69.6935 30.7146C69.6721 31.5675 69.6737 32.4205 69.6935 33.2735C69.7018 33.6372 69.601 33.7777 69.2059 33.7727C68.3456 33.7622 67.4853 33.7642 66.6252 33.7662H66.6251H66.625H66.6249H66.6247H66.6246H66.6245H66.6244H66.6243H66.6242H66.6241H66.6239H66.6238H66.6237H66.6236H66.6235H66.6234H66.6233H66.6231H66.623H66.6229H66.6228H66.6227H66.6226H66.6225H66.6223H66.6222H66.6221C65.8587 33.768 65.0955 33.7698 64.3327 33.7628C63.9773 33.7595 63.8434 33.8521 63.8566 34.224C63.883 34.9249 63.8797 35.6275 63.8566 36.33C63.845 36.6805 63.9756 36.7697 64.3112 36.7681C65.5544 36.7625 66.7973 36.7623 68.0402 36.7621C69.3719 36.7619 70.7037 36.7617 72.0359 36.7548C72.4128 36.7532 72.5401 36.8573 72.5285 37.2425C72.5097 37.8287 72.5135 38.4157 72.5172 39.0023V39.0025V39.0027V39.0029V39.003C72.5188 39.2417 72.5203 39.4803 72.5203 39.7188C72.5203 40.088 72.3412 40.272 71.983 40.2709L69.7743 40.2719H69.7738H69.7734H69.7729H69.7724H69.772H69.7715H69.7711H69.7706H69.7701H69.7697H69.7692H69.7688H69.7683H69.7679H69.7674H69.7669H69.7665H69.766H69.7656H69.7651H69.7647H69.7642H69.7637H69.7633H69.7628H69.7624H69.7619C67.556 40.2729 65.3496 40.2738 63.1441 40.2775L62.785 40.2773C62.0369 40.2765 61.2889 40.2757 60.5422 40.3056C60.1372 40.3221 60.0231 40.1849 60.0264 39.7932C60.0364 37.8939 60.0351 35.9946 60.0339 34.0953L60.0339 34.0781C60.0335 33.4506 60.0331 32.8232 60.0331 32.1957H60.0198ZM102.13 29.8402C102.284 29.9293 102.443 30.0207 102.608 30.1144L102.609 30.1161C102.616 30.0474 102.623 29.987 102.63 29.9321L102.63 29.9318L102.63 29.9317C102.642 29.8243 102.652 29.7379 102.652 29.6516C102.653 29.3332 102.652 29.0146 102.651 28.6959V28.6958V28.6957V28.6956V28.6955V28.6954V28.6953V28.6952V28.6951V28.695V28.6949V28.6948V28.6947V28.6946V28.6945V28.6944V28.6943V28.6942V28.6941V28.694V28.6939V28.6938V28.6925C102.65 28.0082 102.649 27.3236 102.659 26.6397C102.664 26.3355 102.56 26.1454 102.282 26.033C101.927 25.8906 101.574 25.7409 101.222 25.5912C100.461 25.2682 99.7002 24.9453 98.9163 24.6957C97.1972 24.1485 95.4432 24.0394 93.6927 24.6428C91.828 25.2875 90.7419 26.7918 90.7254 28.7622C90.7072 30.7773 91.6908 32.2171 93.3968 33.128C94.2248 33.5701 95.092 33.9384 95.9597 34.3069L95.9598 34.307C96.4969 34.5351 97.0341 34.7633 97.5625 35.0092C98.1311 35.2736 98.708 35.5629 99.1907 35.9514C99.771 36.4192 99.642 37.3565 98.9957 37.7417C98.756 37.8838 98.4551 38.0128 98.1873 38.0028L98.0631 37.9981C97.3392 37.9703 96.6034 37.9421 95.9061 37.7764C94.2696 37.3879 92.8281 36.5382 91.4048 35.6704C91.3158 35.617 91.2231 35.5711 91.123 35.5215L91.0425 35.4815L90.9904 35.4551L90.9717 35.4456C90.9617 35.4896 90.9521 35.5245 90.9441 35.5538C90.931 35.6013 90.9221 35.6337 90.9221 35.6654C90.9216 35.8613 90.9208 36.0572 90.92 36.2531C90.9163 37.185 90.9126 38.1177 90.9304 39.0492C90.932 39.1881 91.0726 39.3799 91.2015 39.4542C91.7239 39.7567 92.2595 40.0394 92.8066 40.2973C95.1573 41.4032 97.5873 41.8065 100.143 41.1156C103.439 40.2246 104.132 36.9879 103.353 34.8819C102.875 33.5908 101.893 32.7478 100.721 32.1543C99.9422 31.7585 99.14 31.4068 98.3378 31.0552L98.3377 31.0551L98.3377 31.0551L98.3376 31.0551L98.3375 31.055L98.3375 31.055L98.3374 31.055L98.3373 31.055L98.3373 31.0549L98.3372 31.0549L98.3371 31.0549L98.337 31.0548L98.337 31.0548L98.3369 31.0548L98.3368 31.0548L98.3368 31.0547L98.3367 31.0547L98.3366 31.0547L98.3366 31.0546L98.3365 31.0546L98.3364 31.0546L98.3364 31.0546L98.3363 31.0545L98.3362 31.0545L98.3362 31.0545L98.3361 31.0544L98.336 31.0544L98.3359 31.0544L98.3359 31.0543L98.3358 31.0543L98.3357 31.0543L98.3357 31.0542L98.3356 31.0542L98.3355 31.0542L98.3355 31.0541L98.3354 31.0541L98.3353 31.0541L98.3353 31.054L98.3352 31.054L98.3351 31.054L98.3351 31.0539L98.335 31.0539L98.3349 31.0539L98.3349 31.0538L98.3348 31.0538L98.3347 31.0538L98.3346 31.0537L98.3346 31.0537L98.3345 31.0537L98.3344 31.0536L98.3344 31.0536L98.3343 31.0536L98.3342 31.0535C97.7405 30.7933 97.1468 30.5331 96.5624 30.255C96.0351 30.0037 95.5077 29.6979 95.0845 29.3061C94.5341 28.797 94.7721 28.0514 95.5127 27.9093C96.0036 27.815 96.5277 27.8018 97.0252 27.8564C98.5097 28.0184 99.8602 28.6035 101.165 29.2978C101.484 29.4671 101.797 29.648 102.13 29.8399L102.13 29.8402L102.13 29.8402ZM16.4383 33.6167C16.4343 33.1164 16.4303 32.6162 16.4303 32.1163H16.4352C16.4352 31.6741 16.4344 31.2318 16.4337 30.7895C16.4314 29.5258 16.4292 28.2621 16.4451 26.9985C16.4501 26.5918 16.3129 26.5141 15.9426 26.5571C15.5735 26.6003 15.2028 26.6295 14.8321 26.6588H14.8321C14.3662 26.6956 13.9004 26.7323 13.4382 26.7968C13.2271 26.8263 13.0633 26.8387 12.9362 26.8483C12.7345 26.8636 12.6257 26.8718 12.5678 26.9304C12.5 26.9991 12.5024 27.137 12.5074 27.4365C12.5092 27.5407 12.5113 27.6645 12.5108 27.8118C12.5048 29.7726 12.5058 31.7334 12.5068 33.6943C12.5072 34.4296 12.5075 35.1649 12.5075 35.9002L12.5078 36.1156C12.5084 36.4983 12.5091 36.8809 12.491 37.2623C12.4067 39.0658 11.5074 40.051 9.73371 40.2924C8.33356 40.4825 7.38305 39.9221 7.05905 38.631C6.92846 38.1054 6.91524 37.5417 6.91358 36.9945C6.90366 34.7655 6.9049 32.5374 6.90614 30.3088V30.3086L6.90614 30.3075C6.90656 29.5649 6.90697 28.8223 6.90697 28.0796C6.90697 28.0435 6.90991 28.0058 6.91286 27.9681C6.92004 27.8763 6.92725 27.7841 6.89209 27.7126C6.84085 27.6084 6.69868 27.4696 6.60942 27.4778C6.15356 27.5191 5.69865 27.5697 5.24372 27.6202L5.24362 27.6202L5.24351 27.6202L5.24341 27.6203L5.24331 27.6203L5.2432 27.6203L5.2431 27.6203L5.24299 27.6203L5.24289 27.6203L5.24278 27.6203L5.24268 27.6203L5.24257 27.6203L5.24247 27.6204L5.24237 27.6204L5.24226 27.6204L5.24216 27.6204L5.24205 27.6204L5.24195 27.6204L5.24184 27.6204L5.24174 27.6204L5.24163 27.6205L5.24153 27.6205L5.24143 27.6205L5.24132 27.6205L5.24121 27.6205L5.2411 27.6205C4.65925 27.6852 4.07736 27.7498 3.4934 27.7952C3.03881 27.8299 2.94954 28.0267 2.95119 28.4416C2.95868 29.7373 2.95803 31.0331 2.95738 32.3288C2.9566 33.8945 2.95581 35.4602 2.96938 37.0259C2.97599 37.9169 3.02062 38.8178 3.17601 39.6923C3.57275 41.9124 4.93817 43.3307 6.94003 43.734C8.33026 44.0134 9.70395 43.9109 11.0743 43.615C12.291 43.3522 13.4085 42.8761 14.3342 42.0248C15.7971 40.6825 16.3542 38.9402 16.4187 37.0259C16.4565 35.8911 16.4474 34.7538 16.4383 33.617V33.6169L16.4383 33.6167ZM103.851 41.3306L103.851 41.3322V41.3305L103.851 41.3306ZM103.851 41.3306C103.887 41.245 103.922 41.1622 103.956 41.0817L104.026 40.9134C104.15 40.6167 104.262 40.3484 104.38 40.0825C105.014 38.6423 105.649 37.2024 106.284 35.7625C107.717 32.5137 109.15 29.2651 110.577 26.0132C110.711 25.7074 110.865 25.5735 111.217 25.6066C112.119 25.6926 113.025 25.7488 113.931 25.795C114.223 25.8093 114.301 25.9973 114.387 26.2045L114.399 26.2331C116.024 30.169 117.649 34.1033 119.275 38.0393L119.28 38.0498C119.839 39.4051 120.398 40.7604 120.955 42.1174C120.991 42.2042 121.023 42.293 121.063 42.4056L121.063 42.4057L121.063 42.406L121.096 42.498C121.11 42.5363 121.125 42.5773 121.142 42.6216C120.977 42.6092 120.82 42.5978 120.668 42.5867L120.667 42.5866L120.666 42.5865C120.308 42.5605 119.977 42.5364 119.647 42.5075C119.366 42.4826 119.085 42.4546 118.804 42.4266L118.804 42.4265L118.803 42.4265C118.319 42.3782 117.835 42.33 117.35 42.2976C117.065 42.2777 116.946 42.1438 116.855 41.9008C116.719 41.5354 116.579 41.172 116.438 40.8086C116.266 40.3649 116.095 39.9213 115.931 39.4741C115.845 39.2377 115.731 39.1319 115.465 39.1121C114.561 39.0494 113.657 38.9819 112.753 38.9145L112.752 38.9144L112.751 38.9143C111.654 38.8325 110.558 38.7507 109.461 38.6773C109.34 38.6691 109.145 38.8162 109.092 38.9385C108.917 39.3357 108.753 39.7373 108.588 40.1387C108.435 40.5125 108.282 40.8863 108.12 41.2561C108.061 41.3917 107.884 41.5785 107.77 41.5719C106.789 41.526 105.809 41.4606 104.784 41.3922L104.779 41.3919C104.474 41.3716 104.165 41.351 103.851 41.3306ZM114.411 35.5563C114.033 34.5794 113.667 33.6358 113.307 32.7064C113.052 32.0481 112.8 31.3969 112.547 30.746C112.53 30.7476 112.513 30.7497 112.496 30.7517L112.476 30.7542C112.466 30.7554 112.455 30.7565 112.445 30.7575C111.833 32.2453 111.222 33.733 110.59 35.2704C111.242 35.3189 111.877 35.3665 112.514 35.4143C113.137 35.4611 113.763 35.5081 114.411 35.5563ZM58.5123 24.1585L58.5111 24.1616C58.4624 24.1576 58.4186 24.1534 58.3782 24.1495C58.2868 24.1408 58.2127 24.1337 58.1387 24.1337C57.7528 24.1365 57.3669 24.1409 56.9811 24.1453H56.9809H56.9808H56.9806H56.9805H56.9803H56.9801H56.98H56.9798H56.9797H56.9795H56.9793H56.9792H56.979H56.9789H56.9787H56.9785H56.9784H56.9782H56.9781H56.9779H56.9777H56.9776H56.9774C56.2075 24.1541 55.4378 24.1629 54.6689 24.1585C54.3234 24.1552 54.1597 24.2841 54.0407 24.6048C53.2523 26.7399 52.4515 28.871 51.6509 31.0016L51.414 31.632C51.2108 32.1728 51.0057 32.7135 50.7957 33.2672L50.7919 33.277C50.67 33.5985 50.5463 33.9243 50.4205 34.2571C50.412 34.2415 50.404 34.2272 50.3966 34.214L50.3931 34.2079L50.3692 34.1661L50.3686 34.1651L50.3685 34.1648L50.3684 34.1647C50.3421 34.119 50.3248 34.0891 50.3131 34.057C50.0366 33.3369 49.7604 32.6168 49.4841 31.8966L49.484 31.8962C48.5745 29.5249 47.665 27.1535 46.7458 24.785C46.6912 24.6429 46.5011 24.4544 46.3755 24.4544C45.3087 24.4688 44.2419 24.5083 43.1762 24.5477L43.176 24.5477L42.7024 24.5652C42.6252 24.5673 42.5488 24.5845 42.4599 24.6045C42.4136 24.6149 42.3639 24.626 42.3089 24.6362C42.3292 24.6919 42.3479 24.7441 42.3657 24.7937L42.3659 24.7943C42.4102 24.9182 42.4488 25.026 42.4924 25.1322C42.9429 26.2124 43.3953 27.292 43.8476 28.3713L43.8491 28.3749C44.1134 29.0055 44.3776 29.636 44.6414 30.2666L45.4274 32.1453C46.5397 34.8033 47.6518 37.4611 48.7542 40.1221C48.8848 40.4362 49.0402 40.5668 49.389 40.5453C50.0354 40.5056 50.6834 40.4874 51.3297 40.5089C51.738 40.5222 51.9364 40.3618 52.0868 39.9915C53.5086 36.489 54.9376 32.9889 56.3666 29.4889L56.3671 29.4877L56.368 29.4856L56.3708 29.4786L56.3715 29.477L56.3722 29.4753L56.3728 29.4737C56.9886 27.9654 57.6045 26.4571 58.2197 24.9487C58.2863 24.7836 58.3465 24.6164 58.4102 24.4393C58.4425 24.3496 58.4757 24.2574 58.5111 24.1616L58.5139 24.1618L58.5123 24.1585ZM74.032 53.1106C74.067 53.0151 74.1039 52.9144 74.1485 52.8093L74.1518 52.806C74.0734 52.7967 74.0077 52.787 73.9499 52.7785C73.853 52.7641 73.7784 52.7531 73.7039 52.7531L70.8914 52.7695C66.2019 52.7968 61.5124 52.8242 56.8228 52.8572C56.2048 52.8603 56.2034 52.8836 56.1721 53.4104L56.1721 53.4108C56.1699 53.4475 56.1676 53.4867 56.1649 53.5284C56.134 53.999 56.0591 54.4666 55.9842 54.9342C55.9467 55.168 55.9092 55.4018 55.8773 55.636C55.8621 55.7471 55.8382 55.8612 55.8142 55.9757L55.8142 55.9758C55.7546 56.2603 55.6946 56.5469 55.7665 56.7932C56.0045 57.6164 55.7136 58.3008 55.4061 59.0099C55.3516 59.1356 55.3632 59.3075 55.3896 59.4496C55.411 59.564 55.445 59.6766 55.479 59.7893C55.5187 59.9208 55.5585 60.0524 55.5781 60.1869C55.6267 60.5147 55.6506 60.8475 55.6744 61.1787L55.6855 61.3325C55.6904 61.3964 55.6994 61.4624 55.7086 61.5287C55.7333 61.7091 55.7584 61.8917 55.7004 62.0416C55.5946 62.3177 55.5929 62.4566 55.8293 62.483C55.9583 63.4616 56.6377 63.9575 57.3138 64.4501C58.0246 64.9692 59.0065 65.2238 59.3173 64.9957C59.1719 64.846 59.0263 64.6963 58.8821 64.5482L58.8811 64.5471C58.6943 64.3553 58.51 64.1659 58.3321 63.9823C58.4114 63.8974 58.4859 63.819 58.5565 63.7446L58.5587 63.7423L58.5588 63.7422L58.5588 63.7422C58.7141 63.5789 58.8509 63.4348 58.9801 63.2831C59.1255 63.1128 59.104 62.9607 58.8809 62.8616C58.7917 62.8211 58.7045 62.7755 58.5972 62.7193C58.5334 62.686 58.4626 62.6489 58.38 62.607C58.4786 62.569 58.5775 62.5402 58.665 62.5146C58.8253 62.4678 58.9474 62.4321 58.9602 62.3723C59.0396 62.0003 59.3189 61.8829 59.714 61.754L59.6363 61.7075L59.557 61.6604C59.448 61.5959 59.3707 61.5501 59.2974 61.4978C59.2326 61.4521 59.173 61.3978 59.1135 61.3436C59.0911 61.3232 59.0688 61.3028 59.0462 61.2829C59.0594 61.2738 59.0723 61.2642 59.0849 61.2547C59.0975 61.2452 59.1098 61.2357 59.1222 61.2267L59.304 61.2525C59.5462 61.2869 59.7885 61.3212 60.0264 61.3556C60.1422 60.787 60.2083 60.7506 60.7356 60.8002C60.8028 60.8065 60.8704 60.8143 60.9383 60.8222C61.3476 60.8695 61.7637 60.9175 62.1324 60.6481C62.2498 60.5638 62.4102 60.3605 62.3787 60.2778C62.341 60.1786 62.3224 60.069 62.3037 59.959L62.3037 59.959L62.3037 59.9589L62.3037 59.9589L62.3036 59.9588L62.3036 59.9588L62.3036 59.9587L62.3036 59.9587L62.3036 59.9586L62.3036 59.9586L62.3036 59.9585L62.3036 59.9585L62.3036 59.9584L62.3035 59.9584L62.3035 59.9584L62.3035 59.9583L62.3035 59.9583L62.3035 59.9582L62.3035 59.9582L62.3035 59.9581L62.3035 59.9581L62.3034 59.958L62.3034 59.958C62.2652 59.7333 62.2267 59.5068 62.0258 59.363C62.0545 59.3791 62.0829 59.3957 62.1109 59.4124L62.1572 59.4401C62.2813 59.5144 62.4012 59.5863 62.5308 59.6249L62.6074 59.648C62.92 59.743 63.2716 59.8497 63.5541 59.7703C63.9285 59.6645 64.2756 59.4598 64.6208 59.2563C64.7176 59.1993 64.8142 59.1423 64.9112 59.0876C64.948 59.067 64.961 59.0098 64.9746 58.9494C64.9861 58.8985 64.9981 58.8454 65.0253 58.8099C65.1029 58.7073 65.1993 58.6184 65.2954 58.5297C65.3201 58.5069 65.3448 58.4841 65.3691 58.4611C65.3761 58.4541 65.3979 58.4636 65.4189 58.4726L65.4286 58.4768C65.4339 58.4791 65.439 58.4811 65.4435 58.4826C65.4278 58.5223 65.4117 58.5624 65.3956 58.6024C65.3795 58.6425 65.3634 58.6826 65.3476 58.7223C65.5361 58.7008 65.6667 58.6181 65.794 58.5305C65.8888 58.4647 65.9821 58.3964 66.0756 58.3281C66.2705 58.1855 66.4655 58.0429 66.6734 57.9222C66.923 57.7767 67.0404 57.5949 67.0801 57.3056C67.1049 57.1238 67.214 56.8626 67.3561 56.8031C67.7224 56.6492 68.1064 56.5374 68.4906 56.4254C68.6057 56.3919 68.7209 56.3584 68.8356 56.3237C68.8815 56.3097 68.9333 56.3059 68.9843 56.3022C69.0603 56.2966 69.1347 56.2912 69.1861 56.2526C69.5267 56.0011 69.8791 56.0419 70.2614 56.0862L70.3283 56.0939C70.649 56.1303 71.0127 56.0807 71.3102 55.9567C71.4658 55.8922 71.5977 55.7738 71.7302 55.6549L71.7303 55.6549C71.8456 55.5513 71.9615 55.4474 72.0938 55.3782C72.7889 55.0141 73.2234 54.4111 73.658 53.8078C73.703 53.7454 73.7479 53.6831 73.7931 53.6209C73.8974 53.4779 73.9607 53.3052 74.032 53.1106ZM66.8303 70.4046C59.0791 70.3269 51.7313 67.6869 45.3455 62.4269C42.694 60.2432 40.4458 57.6859 38.563 54.8112C38.5514 54.7936 38.5379 54.7764 38.5245 54.7593C38.494 54.7202 38.4636 54.6813 38.4555 54.6377C38.4367 54.5445 38.4304 54.448 38.4242 54.3517C38.4217 54.313 38.4192 54.2743 38.4159 54.236C38.4505 54.2554 38.4878 54.2723 38.525 54.2892C38.6052 54.3255 38.6852 54.3618 38.7382 54.4228C39.0581 54.7842 39.371 55.1528 39.6839 55.5213C40.2796 56.2231 40.8754 56.9249 41.5203 57.5785C46.0712 62.1789 51.5164 65.2156 57.7914 66.786C61.6265 67.7464 65.5244 68.087 69.4587 67.8836C76.3206 67.5282 82.6766 65.5826 88.3681 61.6533C91.2212 59.6828 93.6975 57.314 95.8465 54.598C95.8607 54.5799 95.8735 54.56 95.8862 54.5403C95.9119 54.5004 95.9373 54.4609 95.9738 54.4376C96.0548 54.3864 96.1417 54.3455 96.2291 54.3044L96.286 54.2775C96.301 54.2704 96.316 54.2632 96.3309 54.2558C96.321 54.3015 96.3147 54.3495 96.3084 54.3974C96.2947 54.5021 96.2811 54.6067 96.23 54.6873C93.8777 58.3389 90.9287 61.4268 87.4027 63.9593C83.6486 66.6571 79.511 68.5151 75.0014 69.5499C72.4838 70.1268 69.9298 70.3847 66.8303 70.4062V70.4046ZM122.629 32.7468C122.628 33.3796 122.628 34.0125 122.628 34.6455H122.638V35.7597C122.639 36.2716 122.64 36.7835 122.642 37.2953C122.647 38.9582 122.652 40.6204 122.644 42.2826C122.643 42.6447 122.753 42.8067 123.117 42.8248C123.611 42.8496 124.106 42.8943 124.598 42.9439C127.293 43.2183 129.987 43.4943 132.68 43.7836C132.976 43.815 133.045 43.7043 133.045 43.4514L133.045 43.1099V43.1063C133.043 42.3135 133.041 41.5197 133.049 40.7271C133.05 40.4362 132.945 40.3304 132.642 40.3006C131.214 40.1628 129.786 40.0109 128.359 39.8591C127.955 39.8161 127.55 39.773 127.146 39.7303C126.536 39.6659 126.536 39.6642 126.536 39.041C126.536 38.2134 126.535 37.3857 126.535 36.5581C126.534 33.5192 126.534 30.4803 126.544 27.4415C126.544 27.0365 126.427 26.886 126.017 26.8596C125.043 26.7968 124.071 26.7075 123.102 26.5868C122.689 26.5356 122.62 26.6827 122.621 27.0497C122.631 28.9469 122.63 30.8431 122.629 32.7398V32.74V32.7401V32.7403V32.7404V32.7406V32.7407V32.7409V32.741V32.7412V32.7414V32.7415V32.7417V32.7418V32.742V32.7421V32.7423V32.7424V32.7426V32.7427V32.7468ZM40.7997 32.7892C40.7997 33.3848 40.7993 33.9804 40.7989 34.576C40.7978 36.5112 40.7966 38.4465 40.8079 40.3817C40.8096 40.7404 40.722 40.8974 40.3401 40.909C39.2954 40.9371 38.2507 40.9917 37.2076 41.0462C36.9745 41.0578 36.8737 40.9751 36.8852 40.7437C36.8884 40.6828 36.8869 40.622 36.8853 40.5607V40.5606C36.8845 40.5254 36.8836 40.49 36.8836 40.4544L36.8737 25.3917C36.8737 25.1177 36.8737 24.9792 36.9428 24.9061C37.0133 24.8315 37.1558 24.825 37.4438 24.8117L37.4489 24.8115C37.6969 24.8 37.9449 24.7894 38.1928 24.7787C38.9068 24.7481 39.6206 24.7176 40.3335 24.666C40.7038 24.6396 40.8096 24.747 40.8079 25.114C40.798 27.0327 40.7993 28.9514 40.8005 30.8694V30.8712V30.8714V30.8716V30.8719V30.8721V30.8723V30.8726V30.8728V30.873V30.8733V30.8735V30.8737V30.874V30.8742V30.8744V30.8747V30.8749V30.8751V30.8754C40.8009 31.5134 40.8013 32.1513 40.8013 32.7892H40.7997ZM49.3352 46.257C49.3386 46.2039 49.3423 46.1456 49.346 46.0798V46.0831L49.4072 46.1485L49.4591 46.2035C49.5322 46.2808 49.5882 46.3399 49.6402 46.4022C49.8854 46.6966 50.133 46.9894 50.3806 47.2823L50.3806 47.2823L50.3807 47.2824L50.3807 47.2824L50.3808 47.2825L50.3808 47.2825L50.3809 47.2826L50.3809 47.2827L50.381 47.2827L50.381 47.2828L50.3811 47.2828L50.3811 47.2829L50.3812 47.2829L50.3812 47.283L50.3812 47.2831L50.3813 47.2831L50.3813 47.2832L50.3814 47.2832L50.3814 47.2833C51.0218 48.0406 51.6626 48.7982 52.262 49.586C52.6521 50.1001 53.0786 50.2323 53.6737 50.148C53.958 50.1067 54.0357 50.0108 54.0357 49.738C54.0274 47.6337 54.0274 45.5294 54.0357 43.425C54.0374 43.1473 53.9646 43.02 53.6654 43.0431C53.3646 43.0663 53.0588 43.0713 52.7579 43.0531C52.4422 43.0349 52.3529 43.1804 52.3546 43.4696C52.359 44.1187 52.3575 44.7685 52.356 45.4185V45.4187V45.4189V45.419V45.4192V45.4194V45.4196V45.4198V45.42V45.4201V45.4203V45.4205V45.4207V45.4209V45.4211V45.4212V45.4214V45.4216V45.4218C52.3553 45.7474 52.3546 46.0732 52.3546 46.3989V46.9295C52.2885 46.8561 52.2388 46.8023 52.1987 46.7588C52.1494 46.7055 52.1146 46.6678 52.0818 46.6286C51.8836 46.3934 51.6855 46.1579 51.4874 45.9224L51.4829 45.917L51.4817 45.9156L51.4815 45.9154C50.7878 45.0907 50.0937 44.2654 49.3906 43.4482C49.2782 43.3176 49.0881 43.1952 48.9244 43.1804C48.7269 43.1613 48.527 43.1751 48.3269 43.1889H48.3268H48.3268H48.3267H48.3266H48.3266H48.3265H48.3265H48.3264H48.3264H48.3263H48.3262H48.3262H48.3261H48.3261H48.326H48.326H48.3259H48.3258C48.1963 43.1978 48.0667 43.2068 47.9376 43.2068C47.7045 43.2068 47.6202 43.3076 47.6202 43.5291C47.6235 45.6748 47.6235 47.8205 47.6202 49.9662C47.6202 50.2224 47.7392 50.3017 47.9772 50.2885C48.293 50.272 48.6104 50.2621 48.9261 50.2703C49.2303 50.2786 49.3294 50.148 49.3261 49.8488C49.3146 48.9927 49.317 48.1376 49.3194 47.2819C49.3201 47.0372 49.3208 46.7924 49.3212 46.5476C49.3223 46.459 49.328 46.3696 49.3352 46.2571L49.3352 46.257ZM79.7358 47.2518C80.0351 47.7569 80.3282 48.2524 80.6295 48.7618L80.6314 48.765C80.8886 49.1999 81.1519 49.645 81.4302 50.1149C81.2524 50.1071 81.0822 50.1005 80.9177 50.0941L80.9103 50.0938L80.909 50.0937C80.4102 50.0743 79.9641 50.0569 79.5209 50.0173C79.4317 50.0096 79.3411 49.8619 79.2731 49.7508L79.2581 49.7264C79.0135 49.3238 78.7732 48.9189 78.5327 48.5137L78.5316 48.5117C78.3725 48.2437 78.2134 47.9756 78.053 47.708C77.891 47.4385 77.3785 47.2683 77.1273 47.4286C77.043 47.4832 77.0016 47.6584 77 47.7791C76.9867 48.3973 76.9801 49.0172 77 49.6355C77.0099 49.9496 76.8892 50.0504 76.5917 50.0306C76.304 50.0107 76.0131 50.0091 75.7255 50.0239C75.4048 50.0421 75.2891 49.9148 75.294 49.5925C75.3046 48.9446 75.3026 48.2968 75.3006 47.649V47.6478C75.2998 47.3885 75.299 47.1292 75.299 46.8699C75.299 46.5429 75.2999 46.2159 75.3008 45.8888V45.8887V45.8886V45.8885V45.8884V45.8872C75.3031 45.046 75.3054 44.2045 75.2924 43.3621C75.2857 42.9918 75.4213 42.886 75.7751 42.8976C76.4035 42.9184 77.0325 42.9284 77.6617 42.9384C78.1331 42.9458 78.6047 42.9533 79.0762 42.9654C80.1656 42.9935 80.8367 43.5439 81.0682 44.5771C81.3145 45.6797 80.8929 46.655 79.9656 47.1261C79.9322 47.1428 79.8994 47.161 79.8574 47.1843L79.8572 47.1845C79.8244 47.2027 79.786 47.224 79.7374 47.2501L79.7358 47.2518ZM77.9494 44.406L77.9488 44.4085C77.8898 44.4085 77.8307 44.4097 77.7715 44.411C77.6384 44.4138 77.5052 44.4166 77.3736 44.4052C77.0975 44.382 76.9669 44.4713 76.9867 44.7705C76.997 44.9259 76.9953 45.0826 76.9936 45.2392C76.992 45.3842 76.9904 45.5292 76.9983 45.6731C77.0033 45.7607 77.0909 45.9194 77.1388 45.9194C77.2512 45.9172 77.3637 45.9159 77.4763 45.9146C77.9638 45.909 78.4527 45.9034 78.9307 45.8268C79.3143 45.7657 79.3688 45.3854 79.3506 45.0333C79.3341 44.711 79.1473 44.5259 78.8464 44.4763C78.645 44.4434 78.4397 44.4277 78.2348 44.412L78.2347 44.412L78.2346 44.412L78.2345 44.412L78.2344 44.412L78.2343 44.412L78.2342 44.412L78.2341 44.412L78.234 44.412L78.2339 44.4119L78.2339 44.4119L78.2338 44.4119L78.2337 44.4119L78.2336 44.4119L78.2335 44.4119L78.2334 44.4119L78.2333 44.4119L78.2332 44.4118C78.1393 44.4047 78.0455 44.3975 77.9521 44.3887L77.9505 44.3903C77.9505 44.3903 77.9505 44.3956 77.9501 44.4007L77.9494 44.406ZM107.064 51.1397V48.5857V48.5841C107.644 48.4552 108.023 48.5593 108.254 49.1015C108.355 49.3366 108.492 49.556 108.628 49.7754C108.762 49.9895 108.895 50.2036 108.995 50.4322C109.294 51.1199 109.736 51.472 110.516 51.3629C110.701 51.3377 110.893 51.3582 111.112 51.3817C111.223 51.3936 111.341 51.4063 111.47 51.4141C111.135 50.83 110.82 50.2797 110.513 49.7443L110.508 49.736L110.47 49.669L110.46 49.6518L110.456 49.6459C110.236 49.2625 110.021 48.8861 109.805 48.5097C110.762 48.0022 111.01 47.6865 111.157 46.8203C111.379 45.5292 110.63 44.3622 109.412 44.225C108.583 44.1325 107.75 44.085 106.916 44.0376C106.514 44.0147 106.111 43.9918 105.709 43.9638C105.459 43.9456 105.363 44.0464 105.363 44.2944C105.365 45.099 105.366 45.9038 105.366 46.7086C105.367 48.0502 105.368 49.392 105.375 50.7331C105.375 50.8356 105.487 51.0207 105.563 51.029C105.92 51.0717 106.28 51.0928 106.656 51.1149H106.656L106.658 51.1149C106.791 51.1227 106.926 51.1307 107.064 51.1397ZM107.052 45.9083C107.053 45.7827 107.054 45.6521 107.054 45.5144L107.053 45.5127C107.247 45.5285 107.437 45.5416 107.624 45.5546L107.624 45.5546C108.062 45.5849 108.482 45.6139 108.897 45.6731C109.274 45.7276 109.43 46.0235 109.41 46.4483C109.393 46.8219 109.195 47.0616 108.836 47.0831C108.317 47.1129 107.795 47.093 107.274 47.0633C107.196 47.06 107.071 46.893 107.064 46.7955C107.046 46.5112 107.049 46.226 107.052 45.9083ZM31.1111 48.2469C31.6632 49.1395 32.1955 49.9991 32.7906 50.9595C32.6123 50.9668 32.4412 50.9745 32.2754 50.9821L32.2751 50.9821C31.7967 51.0038 31.3625 51.0236 30.9292 51.0224C30.8333 51.0224 30.7127 50.8736 30.6432 50.7661C30.3765 50.3496 30.1157 49.9286 29.8549 49.5076C29.7245 49.2971 29.5941 49.0866 29.463 48.8767C29.2745 48.5742 28.805 48.4138 28.5174 48.589C28.4314 48.6419 28.3819 48.8139 28.3785 48.9329C28.3653 49.5511 28.3604 50.171 28.3752 50.7909C28.3835 51.1 28.2777 51.2455 27.9587 51.2505C27.6787 51.254 27.3979 51.27 27.105 51.2866H27.105H27.1049H27.1049H27.1049H27.1048H27.1048C26.9845 51.2935 26.8622 51.3004 26.7371 51.3067C26.7323 51.257 26.727 51.2112 26.7221 51.168C26.7115 51.0762 26.7023 50.9964 26.7023 50.9166C26.7018 50.2732 26.702 49.6296 26.7021 48.986V48.986V48.9859V48.9859V48.9858V48.9858V48.9858V48.9857V48.9857V48.9857V48.9856V48.9856V48.9845C26.7023 47.5368 26.7026 46.0888 26.6957 44.6415C26.6957 44.3357 26.7652 44.2051 27.1007 44.1936C27.8153 44.1679 28.5291 44.1248 29.2431 44.0817H29.2432H29.2433H29.2434H29.2435H29.2436H29.2437H29.2438H29.2439H29.244H29.2441H29.2441H29.2442H29.2443H29.2444H29.2445L29.2446 44.0817L29.2448 44.0817L29.2449 44.0817L29.245 44.0817H29.2451H29.2452H29.2453H29.2453H29.2454H29.2455H29.2456H29.2456H29.2457H29.2458H29.2459C29.5881 44.061 29.9305 44.0404 30.273 44.0216C31.3822 43.9621 32.0318 44.2994 32.3343 45.0879C32.7129 46.0747 32.4252 47.2682 31.6599 47.8683C31.5503 47.9542 31.433 48.0315 31.3022 48.1178C31.2416 48.1578 31.178 48.1997 31.1111 48.2452V48.2469ZM28.3395 46.494L28.3395 46.4941C28.3344 46.6207 28.3293 46.7469 28.3538 46.8682C28.3719 46.9575 28.4976 47.0963 28.5653 47.0914L28.7304 47.0793C29.2332 47.0428 29.7385 47.0061 30.2316 46.9062C30.597 46.8318 30.7937 46.4054 30.7342 46.0202C30.6697 45.6069 30.3705 45.4995 30.0151 45.4995C29.7735 45.4995 29.5319 45.519 29.2903 45.5386L29.2902 45.5386C29.2178 45.5445 29.1453 45.5503 29.0728 45.5557C28.5868 45.592 28.3444 45.8521 28.3455 46.3359H28.3438C28.3438 46.3884 28.3417 46.4412 28.3395 46.494ZM70.1647 46.9377C70.4309 44.4713 68.9398 42.6331 66.5974 42.6166V42.6149C66.4345 42.6536 66.2687 42.6853 66.1028 42.717C65.7435 42.7857 65.3842 42.8544 65.0551 42.9935C63.2516 43.7555 62.7359 45.65 63.1359 47.5196C63.6236 49.8008 65.9808 50.6075 67.8951 49.9446C69.3134 49.4536 70.011 48.3742 70.1647 46.9377ZM67.2206 44.3407C68.0121 44.5687 68.5095 45.3748 68.51 46.4254C68.5066 48.1296 67.0437 49.1032 65.632 48.3411C64.8799 47.9345 64.4964 46.7939 64.7609 45.7508C65.0617 44.5705 66.0502 44.0035 67.2206 44.3407ZM100.407 50.9545C97.9824 50.9545 96.407 49.1031 96.6483 46.6153C96.7112 45.959 96.8715 45.3457 97.2484 44.8002C98.0154 43.691 99.4652 43.2265 100.971 43.5769C103.221 44.101 104.117 46.2896 103.707 48.2865C103.352 50.0173 102.171 50.9579 100.409 50.9545H100.407ZM98.3144 47.4457L98.3145 47.4459C98.3598 47.6787 98.4052 47.9118 98.4832 48.1344C98.7659 48.9461 99.4552 49.3775 100.379 49.3643C101.189 49.3511 101.745 48.9395 101.996 48.1493C102.054 47.9675 102.085 47.7757 102.112 47.5856C102.264 46.5491 101.698 45.4763 100.849 45.1821C99.4139 44.6845 98.2948 45.5375 98.2518 47.1393C98.2745 47.2408 98.2945 47.3432 98.3144 47.4457ZM55.6508 43.4034V46.5806V46.5823V49.6768C55.6508 49.8967 55.6607 50.1 55.9666 50.0917C56.2572 50.0838 56.5479 50.0796 56.8385 50.0754H56.8388H56.8389C57.5253 50.0655 58.2114 50.0555 58.8941 49.9975C59.3454 49.9595 59.8116 49.7925 60.2182 49.5809C61.6233 48.8486 62.0102 47.5675 61.9275 46.1045C61.8316 44.4101 60.858 43.2761 59.1785 43.0563C58.422 42.9568 57.6506 42.97 56.8796 42.9833H56.8794H56.8793H56.8792H56.8791H56.8789H56.8788H56.8787H56.8786H56.8784H56.8783H56.8782H56.878C56.5611 42.9888 56.2443 42.9942 55.9285 42.9918C55.6508 42.9885 55.6508 43.2051 55.6508 43.4034ZM58.0444 44.4773C58.0976 44.4801 58.1507 44.4828 58.2032 44.4829C59.4628 44.3903 60.0149 45.154 60.1554 45.9971C60.3505 47.1724 59.8909 48.156 58.957 48.4205C58.6092 48.5179 58.2305 48.5156 57.8579 48.5134C57.7753 48.5129 57.693 48.5124 57.6114 48.513C57.5353 48.513 57.3915 48.3428 57.3915 48.2486C57.3766 47.0798 57.3766 45.9128 57.3948 44.7441C57.3965 44.6548 57.5601 44.5225 57.6709 44.4944C57.7895 44.4642 57.917 44.4708 58.0444 44.4773ZM21.4134 51.8505C19.4864 51.8502 18.28 50.6798 18.1726 48.6105C18.0073 45.4102 20.558 43.977 22.8623 44.4497C24.1666 44.7175 25.0692 45.678 25.2427 47.0252C25.3188 47.6153 25.3287 48.2419 25.2179 48.8237C24.8626 50.7129 23.3917 51.8502 21.4134 51.8505ZM23.6459 47.9865C23.6457 47.152 23.3382 46.4482 22.7995 46.1689C22.1416 45.8284 21.4605 45.8664 20.8307 46.2334C19.7 46.8897 19.462 48.908 20.391 49.8305C20.7795 50.2156 21.2688 50.3495 21.7912 50.2652C23.0042 50.0718 23.6456 49.2655 23.6459 47.9865ZM88.2655 43.5907C88.2648 43.4774 88.2641 43.3638 88.2641 43.2497V43.248C88.2196 43.2409 88.1812 43.234 88.1468 43.2277C88.0775 43.2152 88.0245 43.2056 87.9715 43.2034C87.5124 43.1878 87.0534 43.1733 86.5945 43.1588L86.5943 43.1588L86.5941 43.1588L86.5939 43.1588L86.5937 43.1588L86.5935 43.1588L86.5932 43.1588L86.593 43.1588L86.5928 43.1587L86.5925 43.1587L86.5923 43.1587C85.4989 43.1243 84.406 43.0898 83.3132 43.0398C82.9181 43.0216 82.8222 43.1687 82.8255 43.5324C82.8404 45.5805 82.847 47.6287 82.8338 49.6768C82.8305 50.0735 82.9925 50.1611 83.3446 50.1661C84.385 50.1813 85.4254 50.209 86.4659 50.2368L86.899 50.2483L87.426 50.262C88.0123 50.2774 88.3054 49.9936 88.3054 49.4107V49.4057C88.3054 48.8072 88.3054 48.7973 87.7119 48.7742C86.8735 48.7416 86.0338 48.7209 85.1951 48.7003L85.1945 48.7003L84.9084 48.6932C84.7083 48.6883 84.5348 48.6503 84.5612 48.4023C84.5992 48.0403 84.6521 47.6783 84.7149 47.3195C84.7183 47.3014 84.8687 47.3047 84.9513 47.308C85.0836 47.3135 85.2158 47.3213 85.3481 47.329C85.5729 47.3423 85.7977 47.3555 86.0225 47.3576C86.2248 47.3596 86.3905 47.3672 86.5261 47.3734H86.5262H86.5263C86.8242 47.3871 86.9771 47.3941 87.0548 47.3211C87.1368 47.2442 87.1354 47.0784 87.1324 46.7378C87.1312 46.6016 87.1298 46.4376 87.1334 46.2401C87.1383 45.9872 87.0193 45.8963 86.7895 45.8913C86.3085 45.8797 85.8275 45.8681 85.3464 45.8533C85.2304 45.8495 85.1316 45.8488 85.0475 45.8482H85.0471C84.8158 45.8465 84.6952 45.8456 84.6314 45.785C84.562 45.7191 84.5597 45.5823 84.5549 45.2968V45.2966V45.2965V45.2964V45.2963C84.5537 45.2236 84.5523 45.1414 84.5496 45.0482C84.5381 44.6829 84.634 44.5358 85.034 44.5589C85.7468 44.6006 86.4614 44.6172 87.1759 44.6338L87.1786 44.6339L87.1814 44.6339C87.3996 44.639 87.6178 44.644 87.8359 44.6498C87.8515 44.6502 87.8674 44.6509 87.8834 44.6515H87.8834H87.8835H87.8836C88.0619 44.6583 88.2532 44.6657 88.2608 44.4002C88.2689 44.132 88.2672 43.8639 88.2655 43.594V43.5937V43.5934V43.5932V43.5929V43.5926V43.5924V43.5921V43.5919V43.5916V43.5907ZM90.1271 48.2239L90.1272 48.2239L90.1273 48.224C90.3563 48.3636 90.5564 48.4857 90.7717 48.5644C91.3966 48.7925 92.0347 48.9991 92.6843 49.1446C93.0166 49.219 93.3588 49.0752 93.448 48.6801C93.5356 48.2883 93.2546 48.1032 92.9554 47.9693C92.7039 47.8578 92.4494 47.7528 92.1951 47.6478L92.1947 47.6477L92.1944 47.6475L92.194 47.6474L92.1937 47.6472L92.1936 47.6472C91.7881 47.4798 91.3828 47.3125 90.9899 47.1196C90.1998 46.7328 89.6758 46.1294 89.6609 45.1938C89.6444 44.2119 90.2064 43.4729 91.1635 43.2382C92.4314 42.9274 93.5819 43.3076 94.6944 43.8647C94.7854 43.9094 94.8763 44.0515 94.8812 44.1524C94.8955 44.4766 94.8935 44.8016 94.8913 45.1616C94.8904 45.3009 94.8895 45.4454 94.8895 45.5971C94.8195 45.563 94.7591 45.5324 94.7047 45.5048C94.6012 45.4523 94.5195 45.4109 94.4349 45.3773L94.2569 45.3078C93.6549 45.0729 93.0527 44.8379 92.4463 44.6152C92.3355 44.5739 92.1834 44.5507 92.0826 44.5937L92.0219 44.6197C91.8306 44.701 91.5955 44.8009 91.5553 44.9425C91.5123 45.0946 91.6743 45.412 91.8313 45.4963C92.1672 45.6781 92.5197 45.8299 92.8725 45.9819C93.0875 46.0745 93.3026 46.1671 93.5142 46.2666C93.8117 46.4055 94.1027 46.5625 94.3787 46.7411C95.0647 47.1824 95.3871 47.8205 95.3011 48.6338C95.2102 49.4868 94.7705 50.1017 93.9473 50.391C92.4909 50.9018 91.1619 50.5183 89.894 49.7728C89.8229 49.7314 89.7535 49.6223 89.7518 49.543C89.742 49.1898 89.7431 48.8358 89.7443 48.4387V48.4384V48.4381V48.4379V48.4376V48.4373V48.437V48.4367V48.4363V48.436L89.745 48.1698L89.7452 48.0007L89.7468 47.999C89.8848 48.0761 90.0093 48.1521 90.1263 48.2234L90.1264 48.2235L90.1265 48.2235L90.1266 48.2236L90.1268 48.2237L90.127 48.2238L90.1271 48.2239ZM39.2662 50.6289L39.2655 50.6306V50.6289L39.2662 50.6289ZM39.721 50.5993C39.577 50.6089 39.4263 50.619 39.2662 50.6289C39.4255 50.2524 39.5776 49.8942 39.7251 49.5468L39.7252 49.5466C39.9601 48.9933 40.1832 48.4678 40.4045 47.941C40.5265 47.6507 40.6488 47.3604 40.7711 47.0701L40.7741 47.063C41.2371 45.9636 41.7004 44.8636 42.1534 43.7604C42.2625 43.4943 42.4096 43.3835 42.7006 43.372L42.7317 43.3708C43.7602 43.3306 43.7628 43.3305 44.185 44.3027C44.6606 45.3941 45.1367 46.4849 45.6127 47.5755L45.614 47.5784L45.6152 47.5813C45.9459 48.3388 46.2765 49.0962 46.6068 49.8536C46.6393 49.9289 46.6693 50.0054 46.7115 50.1128L46.7116 50.1129L46.7117 50.1132L46.7119 50.1138L46.712 50.1139C46.7382 50.1809 46.7692 50.2598 46.8084 50.3578C46.6695 50.3578 46.5349 50.358 46.4037 50.3582C45.9589 50.3587 45.5527 50.3592 45.1455 50.3529C45.0909 50.3529 45.0281 50.29 44.9884 50.2404C44.9471 50.1892 44.9124 50.1214 44.9008 50.0553C44.7223 49.1312 44.1503 48.8486 43.2742 49.0403C43.1684 49.0635 43.0527 49.0618 42.9452 49.0469C42.0079 48.9197 41.355 49.2156 41.1715 50.2223C41.1269 50.4686 40.9682 50.5413 40.7285 50.5463C40.4064 50.5534 40.0852 50.5749 39.7211 50.5993L39.721 50.5993ZM42.9221 46.0324L43.0428 45.7326H43.0444L43.8114 47.5592H42.3071C42.5085 47.06 42.7051 46.5714 42.9221 46.0324ZM116.212 46.126V46.6847V51.2637C116.212 51.753 116.176 51.7844 115.697 51.7398C115.641 51.735 115.586 51.7263 115.53 51.7176L115.53 51.7175L115.53 51.7175L115.529 51.7174L115.529 51.7174L115.491 51.7114L115.459 51.7066C115.443 51.7043 115.427 51.7021 115.411 51.7001C114.826 51.6329 114.534 51.2984 114.534 50.6967C114.534 50.3203 114.534 49.9439 114.533 49.5675V49.5656C114.532 48.5127 114.53 47.4599 114.541 46.407C114.544 46.083 114.442 45.9756 114.116 45.9772C113.842 45.9792 113.568 45.9583 113.294 45.9374L113.294 45.9374L113.294 45.9373L113.294 45.9373L113.293 45.9373L113.293 45.9373L113.293 45.9373C113.101 45.9226 112.909 45.908 112.716 45.9012C112.476 45.8929 112.362 45.8053 112.374 45.554C112.385 45.2664 112.382 44.9771 112.374 44.6878C112.369 44.4663 112.47 44.4035 112.68 44.4184C114.462 44.549 116.242 44.6779 118.024 44.8002C118.28 44.8184 118.391 44.9292 118.376 45.1904C118.361 45.4367 118.36 45.6863 118.376 45.9326C118.396 46.2318 118.259 46.3211 117.981 46.2913C117.591 46.2498 117.202 46.2139 116.782 46.1753L116.781 46.1752L116.781 46.1752L116.78 46.1751L116.649 46.163C116.508 46.1501 116.364 46.1367 116.216 46.1227L116.212 46.126ZM36.5644 49.2826C36.277 49.2965 35.9838 49.3107 35.6818 49.3263L35.6785 49.3279V48.8105C35.6785 48.3932 35.678 47.9759 35.6775 47.5584V47.5581V47.5579V47.5576V47.5573V47.5571V47.5568C35.6762 46.4069 35.6749 45.2564 35.6834 44.1059C35.6867 43.7951 35.5793 43.6794 35.2768 43.7141L35.1637 43.7274C34.9279 43.7555 34.6903 43.7838 34.4552 43.7753C34.0981 43.7621 33.9808 43.896 33.9841 44.2563C33.9989 46.3061 33.9989 48.3559 33.9841 50.4057C33.9824 50.7677 34.0915 50.8884 34.4568 50.8636C35.5413 50.7925 36.6273 50.7347 37.7134 50.6967C37.7997 50.6936 37.8782 50.6913 37.9495 50.6892C38.3422 50.6777 38.5181 50.6725 38.5949 50.5827C38.6571 50.5098 38.6542 50.3811 38.6488 50.1481C38.6463 50.0433 38.6434 49.9174 38.6457 49.766C38.6556 49.1702 38.6442 49.1708 38.0648 49.2049L38.0523 49.2056C37.5633 49.2341 37.0729 49.2579 36.5644 49.2826ZM84.3678 12.7095C84.352 12.6339 84.3349 12.5665 84.3191 12.5044C84.2868 12.3777 84.2603 12.2738 84.2636 12.1706C84.2669 12.0961 84.3067 12.0238 84.3589 11.9292C84.3866 11.8789 84.4178 11.8222 84.4488 11.7556C84.343 11.5854 84.181 11.4432 83.809 11.4184C83.5184 11.3991 83.2264 11.1737 82.9641 10.9711C82.934 10.9479 82.9043 10.9249 82.8751 10.9027C82.7534 10.8098 82.6643 10.6732 82.5622 10.5168L82.5622 10.5166C82.5117 10.4393 82.458 10.3571 82.3957 10.2728C82.4535 10.0447 82.5511 9.7389 82.9709 9.79676C83.09 9.81329 83.1941 9.94554 83.2619 10.0877C83.7214 10.0414 83.9859 10.2117 84.0339 10.7126C84.0401 10.7823 84.1466 10.8464 84.2462 10.9062L84.2463 10.9063C84.2789 10.9259 84.3107 10.9451 84.338 10.9638C84.7976 11.2845 85.2588 11.6036 85.7233 11.916C85.7944 11.9639 85.8919 12.0119 85.9713 12.0019C86.3085 11.9623 86.4407 12.1507 86.5168 12.435C86.5498 12.5568 86.5937 12.6762 86.6384 12.7975C86.6586 12.8525 86.679 12.9078 86.6986 12.964C86.3729 13.2351 86.087 13.288 84.4273 13.3591L84.4928 13.2361C84.5608 13.1084 84.6228 12.992 84.6934 12.8582C84.5529 12.7938 84.4108 12.7293 84.3694 12.7111L84.3678 12.7095ZM74.4368 12.2118L74.4336 12.2106C73.9906 12.0405 73.5503 11.8714 73.0741 11.6877L73.0708 11.6861L73.1006 11.6658L73.1333 11.644C73.1949 11.6028 73.2641 11.5567 73.3287 11.5042C73.3888 11.4568 73.4441 11.403 73.499 11.3494L73.4991 11.3493C73.515 11.3338 73.5308 11.3184 73.5468 11.3031L73.57 11.2811C73.5326 11.2712 73.4927 11.2556 73.4528 11.24C73.3658 11.2059 73.2786 11.1718 73.2163 11.1968C72.7782 11.3737 72.3352 11.5555 71.9335 11.8001C71.7974 11.8829 71.7017 12.0327 71.606 12.1826C71.5622 12.2512 71.5184 12.3198 71.4706 12.382C71.545 12.4138 71.6186 12.4485 71.6922 12.4832L71.6922 12.4832L71.6924 12.4833C71.8558 12.5603 72.0193 12.6373 72.1914 12.6829C72.511 12.7673 72.8361 12.8321 73.1852 12.9016C73.3417 12.9328 73.503 12.965 73.6709 13.0003C73.6014 13.0408 73.5551 13.0681 73.5204 13.0885C73.4857 13.109 73.4626 13.1226 73.4394 13.1358C73.4574 13.1505 73.4752 13.1695 73.4929 13.1884C73.5288 13.2269 73.5643 13.2648 73.5998 13.2648C73.8008 13.2611 74.0017 13.2449 74.2027 13.2287C74.2745 13.2229 74.3463 13.2171 74.418 13.2119C74.4726 13.4317 74.947 13.7937 75.0677 13.6813C75.4991 13.2788 75.2448 13.0998 74.9861 12.9178C74.8889 12.8495 74.7911 12.7807 74.7288 12.6994L74.7572 12.6159L74.7581 12.6132C74.7837 12.538 74.8116 12.456 74.8412 12.3671L74.4368 12.2118ZM82.0998 12.6747C82.0892 12.6607 82.0758 12.6399 82.0596 12.6148L82.0596 12.6148C82.0125 12.5418 81.942 12.4322 81.8485 12.3474C81.6832 12.197 81.6419 12.0829 81.8171 11.9077C81.8593 11.8655 81.8799 11.8019 81.9006 11.7383L81.9006 11.7382C81.9213 11.6746 81.9419 11.611 81.9841 11.5688C82.0098 11.5433 82.0357 11.5171 82.0618 11.4906L82.0621 11.4902L82.0623 11.49C82.2241 11.3259 82.395 11.1524 82.5941 11.0927C82.6968 11.0615 82.8548 11.195 82.9972 11.3154L82.9975 11.3156C83.036 11.3482 83.0733 11.3797 83.1082 11.4068C83.1439 11.4342 83.1583 11.487 83.1729 11.5409C83.1813 11.5718 83.1898 11.6029 83.2024 11.63C83.2391 11.7097 83.2928 11.8031 83.3464 11.8962L83.3464 11.8963C83.4595 12.0927 83.5719 12.2879 83.5214 12.3507C83.2354 12.7028 82.8585 13.0004 82.4668 13.2417C82.237 13.3839 82.0634 13.1657 82.0998 12.6764V12.6747ZM92.278 18.0544C92.4002 18.2226 92.5246 18.3938 92.4925 18.6241C92.9537 18.2687 92.8099 17.8124 92.1702 17.2768C91.9596 17.6162 92.1168 17.8326 92.278 18.0544ZM92.0605 16.8596C91.9877 16.7122 91.9149 16.5648 91.8296 16.3942C91.5569 16.8355 91.666 17.0471 92.2098 17.1612C92.1576 17.0561 92.1091 16.9578 92.0605 16.8596Z" fill="#2C68D2"/>
</svg>
