<svg width="32" height="32" viewBox="0 0 32 32" fill="none" xmlns="http://www.w3.org/2000/svg">
<path d="M11.5795 30.2466C13.0131 30.6796 14.4616 30.9335 15.9997 30.9335C19.9603 30.9335 23.7587 29.3602 26.5592 26.5596C29.3597 23.7591 30.9331 19.9607 30.9331 16.0002C30.9331 14.0391 30.5468 12.0972 29.7963 10.2854C29.0459 8.47363 27.9459 6.82739 26.5592 5.44071C25.1725 4.05402 23.5263 2.95404 21.7145 2.20357C19.9027 1.4531 17.9608 1.06683 15.9997 1.06683C14.0387 1.06683 12.0968 1.4531 10.285 2.20357C8.4732 2.95404 6.82697 4.05402 5.44028 5.44071C2.63973 8.24125 1.06641 12.0396 1.06641 16.0002C1.06641 22.3468 5.05361 27.7975 10.6835 29.9479C10.5491 28.7831 10.4147 26.8567 10.6835 25.5276L12.4008 18.1506C12.4008 18.1506 11.9677 17.2844 11.9677 15.9106C11.9677 13.8498 13.252 12.3116 14.7155 12.3116C15.9997 12.3116 16.5971 13.2524 16.5971 14.462C16.5971 15.7463 15.7459 17.5831 15.3128 19.3452C15.0589 20.8087 16.0893 22.093 17.5827 22.093C20.2408 22.093 22.3016 19.2556 22.3016 15.2535C22.3016 11.6695 19.7331 9.22043 16.0445 9.22043C11.8333 9.22043 9.35441 12.3564 9.35441 15.6567C9.35441 16.941 9.77254 18.2402 10.4595 19.0914C10.5939 19.181 10.5939 19.3004 10.5491 19.5244L10.116 21.1522C10.116 21.406 9.95174 21.4956 9.69787 21.3164C7.78641 20.4802 6.68134 17.7623 6.68134 15.5671C6.68134 10.8482 10.0264 6.5623 16.4776 6.5623C21.6147 6.5623 25.6168 10.2508 25.6168 15.149C25.6168 20.286 22.436 24.4076 17.8813 24.4076C16.4328 24.4076 15.0141 23.6311 14.5064 22.7202L13.5059 26.2594C13.1624 27.5436 12.2216 29.261 11.5795 30.2914V30.2466Z" fill="white"/>
</svg>
