<svg width="80" height="80" viewBox="0 0 80 80" fill="none" xmlns="http://www.w3.org/2000/svg">
<path d="M68.3101 32.7319L66.582 29.9873L63.0242 24.3964L61.906 24.9047C59.6697 25.8196 57.23 25.0064 55.9085 22.9733C55.4003 22.1601 55.0953 21.2452 55.0953 20.3304C55.0953 19.0089 55.6036 17.6874 56.6201 16.7726L57.535 15.9593L51.6392 6.91232L0 40.1525L5.89581 49.1995L7.01398 48.6912C9.14867 47.878 11.69 48.5896 13.0114 50.6226C14.3329 52.6557 14.028 55.1969 12.2999 56.8234L11.385 57.6366L17.2808 66.6836L18.5006 65.8704L21.2452 64.1423L68.92 33.3418L68.3101 32.7319ZM62.4143 34.0534L60.3812 35.3748L58.4498 36.5947L55.5019 38.4244L54.9937 37.6112L52.4524 39.2376L52.9606 40.0508L24.7014 58.4498L18.094 62.7192L17.8907 62.4142L15.1461 58.1449C16.366 56.5184 16.8742 54.587 16.6709 52.554C16.5693 51.3342 16.1626 50.1144 15.4511 49.0978C15.1461 48.5896 14.7395 48.0813 14.2313 47.6747C12.2999 45.845 9.65693 45.0318 7.01398 45.6417L4.06608 41.0673L39.0343 18.5006L39.9492 19.8221L42.4905 18.1957L41.5756 16.8742L50.6226 11.08L53.5705 15.5527C51.6392 18.1957 51.4359 21.8551 53.2656 24.5997C55.0953 27.446 58.4498 28.7675 61.7027 28.0559L63.4308 30.6989L64.6506 32.6302L62.4143 34.0534Z" fill="white"/>
<path d="M45.2449 22.4748L42.6826 24.1286L44.8876 27.5449L47.4499 25.8911L45.2449 22.4748Z" fill="white"/>
<path d="M52.3509 33.4434L49.8096 35.0699L49.098 33.9517L47.5732 31.7154L50.1145 30.0889L52.2492 33.2401L52.3509 33.4434Z" fill="white"/>
<path d="M77.5602 49.0979H76.3404C74.0024 49.1995 71.8677 47.5731 71.3595 45.2351C70.8512 42.8971 72.071 40.5591 74.2057 39.6442L75.3239 39.136L72.9859 28.6658L66.2278 30.219L67.7918 32.9606L70.7496 32.3253L71.9694 37.6112C69.2248 39.4409 67.8017 42.7954 68.5132 46.0483C69.2248 49.3012 71.9694 51.7408 75.2222 52.1474L76.4421 57.4333L65.9719 59.7713L65.7686 58.7548L62.8207 59.3647L63.024 60.3812L22.3633 69.5299L21.0624 63.9258L18.3282 65.5421L20.0253 73.0877L79.9999 59.6696L77.5602 49.0979Z" fill="white"/>
<path d="M61.6392 41.0919L58.6641 41.7609L59.5562 45.7278L62.5313 45.0587L61.6392 41.0919Z" fill="white"/>
<path d="M63.6519 49.8246L60.6768 50.4937L61.5689 54.4606L64.544 53.7915L63.6519 49.8246Z" fill="white"/>
</svg>
