<svg width="80" height="80" viewBox="0 0 80 80" fill="none" xmlns="http://www.w3.org/2000/svg">
<path d="M67.15 50.6095C66.45 51.5095 65.75 52.4095 65.05 53.4095C65.05 53.5095 62.55 56.2095 58.65 58.7095C59.05 56.0095 59.55 53.1095 60.05 51.1095C60.75 48.3095 62.45 41.9095 64.85 37.8095C65.25 38.0095 65.65 38.1095 66.05 38.1095C67.75 38.1095 69.15 36.7095 69.15 35.0095C69.15 34.8095 69.15 34.5095 69.05 34.3095H78.75C78.35 31.0095 75.15 28.4095 71.25 28.3095L75.35 24.2095C72.65 22.1095 68.55 22.5095 65.75 25.3095C65.35 25.7095 65.05 26.0095 64.85 26.4095C64.55 26.0095 64.25 25.6095 63.95 25.3095C62.85 24.3095 61.65 23.5095 60.35 23.2095C59.15 21.3095 57.15 19.9095 54.55 19.4095L59.75 15.4095C57.25 12.5095 52.35 12.3095 48.75 15.1095C48.65 15.2095 48.35 15.5095 48.25 15.6095L48.95 9.10947C45.15 8.80947 41.45 12.1095 40.95 16.6095C40.85 17.3095 40.95 17.9095 40.95 18.6095C40.25 18.3095 39.45 18.1095 38.65 18.0095C34.15 17.4095 30.05 20.1095 29.45 23.9095L35.95 24.7095C35.85 24.8095 35.45 25.0095 35.35 25.1095C31.75 27.8095 30.75 32.7095 32.95 35.8095L38.15 31.8095C37.95 36.0095 40.55 39.7095 44.05 40.3095L45.55 28.2095C45.55 28.2095 49.35 34.7095 50.35 42.1095C51.35 49.6095 51.65 55.3095 51.45 60.4095C51.35 61.0095 51.25 61.6095 51.15 62.1095C50.35 62.3095 49.45 62.4095 48.65 62.5095C37.25 63.5095 29.75 55.2095 25.35 48.1095C25.25 47.9095 25.15 47.7095 25.05 47.5095C25.85 46.8095 26.55 45.9095 26.85 44.8095C27.35 43.3095 27.25 41.7095 26.55 40.3095L24.55 36.4095L20.35 38.5095C22.45 36.7095 23.05 33.6095 21.55 31.1095L19.35 27.3095L16.05 29.0095C16.45 28.3095 16.65 27.5095 16.75 26.7095C16.95 25.1095 16.45 23.6095 15.45 22.4095L12.65 19.0095L9.35 21.7095C9.55 20.4095 9.45 19.1095 8.85 17.9095C8.15 16.5095 6.95 15.4095 5.45 14.9095C3.95 14.4095 1.25 13.6618 1.25 13.6618V19.2095V70.9095H77.35V43.0095L75.45 43.6095C71.25 44.9095 69.35 47.6095 67.15 50.6095ZM65.95 36.1095C65.35 36.1095 64.85 35.6095 64.85 35.0095C64.85 34.9095 64.85 34.9095 64.85 34.8095H64.95C65.65 34.8095 66.25 34.6095 66.75 34.2095C66.85 34.4095 66.95 34.6095 66.95 34.9095C67.05 35.6095 66.65 36.1095 65.95 36.1095ZM74.95 32.0095H68.15C68.15 31.9095 68.15 31.8095 68.15 31.7095C68.15 31.6095 68.15 31.5095 68.15 31.4095C69.05 30.9095 70.05 30.6095 71.15 30.6095C72.55 30.6095 73.95 31.2095 74.95 32.0095ZM67.25 27.0095C68.35 25.9095 69.65 25.3095 70.95 25.2095L66.95 29.2095C66.65 29.0095 66.35 28.8095 66.05 28.7095C66.35 28.1095 66.75 27.5095 67.25 27.0095ZM65.05 30.6095C65.65 30.6095 66.15 31.1095 66.15 31.7095C66.15 31.8095 66.15 31.8095 66.15 31.9095C66.05 32.4095 65.65 32.8095 65.05 32.8095C64.75 32.8095 64.45 32.7095 64.25 32.5095C64.05 32.3095 63.95 32.0095 63.95 31.7095C63.95 31.1095 64.35 30.6095 65.05 30.6095ZM18.15 31.2095L18.85 32.4095C19.25 33.1095 19.35 33.8095 19.15 34.6095C19.05 34.9095 18.95 35.1095 18.85 35.4095L16.85 32.0095L18.15 31.2095ZM4.25 16.951C4.25 16.951 4.44922 16.9727 5.23146 17.4001C6.01371 17.8275 6.25831 19.0095 6.35 19.9095L4.25 18.7095V16.951ZM11.75 67.9095H4.25V23.3095C7.15 25.3095 9.65 27.9095 11.75 30.6095V67.9095ZM13.75 26.4095C13.75 26.7095 13.65 27.0095 13.55 27.2095L11.05 24.1095L12.25 23.1095L13.15 24.2095C13.65 24.9095 13.85 25.6095 13.75 26.4095ZM22.55 67.9095H14.75V34.9095C16.85 38.2095 18.55 41.6095 19.85 44.2095C20.25 45.0095 20.65 45.7095 20.95 46.4095C21.45 47.4095 21.95 48.3095 22.45 49.1095V67.9095H22.55ZM23.95 43.7095C23.85 44.0095 23.75 44.2095 23.55 44.5095L21.75 41.0095L23.15 40.3095L23.75 41.5095C24.15 42.2095 24.15 43.0095 23.95 43.7095ZM62.35 35.9095C62.15 36.0095 61.95 36.1095 61.75 36.1095C61.15 36.1095 60.65 35.6095 60.65 35.0095C60.65 34.7095 60.75 34.5095 60.95 34.3095C61.15 34.1095 61.45 33.9095 61.75 33.9095C62.05 33.9095 62.45 34.1095 62.55 34.3095C62.75 34.5095 62.75 34.7095 62.75 35.0095C62.85 35.4095 62.65 35.7095 62.35 35.9095ZM61.25 26.2095C61.55 26.4095 61.85 26.7095 62.15 27.0095C62.75 27.6095 63.15 28.3095 63.45 29.0095C63.15 29.2095 62.95 29.3095 62.75 29.6095L60.35 27.2095L58.45 25.3095C59.35 25.3095 60.35 25.6095 61.25 26.2095ZM61.35 31.4095C61.55 31.5095 61.65 31.6095 61.85 31.7095C61.85 31.8095 61.85 31.8095 61.85 31.9095C61.65 31.9095 61.25 31.9095 61.05 32.0095H54.55C55.55 31.2095 56.95 30.6095 58.35 30.6095C59.45 30.6095 60.45 30.9095 61.35 31.4095ZM59.45 37.0095C58.55 38.6095 57.75 40.4095 56.95 42.2095C56.25 39.5095 55.45 36.8095 54.35 34.2095H58.75C58.75 34.4095 58.65 34.7095 58.65 34.9095C58.75 35.8095 59.05 36.5095 59.45 37.0095ZM52.65 30.7095C51.75 29.0095 50.75 27.4095 49.65 25.8095L56.65 26.7095L58.25 28.3095C56.05 28.3095 53.95 29.3095 52.65 30.7095ZM56.75 23.1095C55.85 23.3095 54.95 23.7095 54.15 24.3095L48.15 23.5095C48.95 22.7095 50.35 22.1095 51.15 21.9095C51.65 21.8095 53.15 21.7095 53.45 21.8095C54.75 21.9095 55.85 22.4095 56.75 23.1095ZM49.65 17.5095C49.85 17.3095 50.05 17.2095 50.25 17.0095C51.95 15.7095 54.05 15.2095 55.75 15.7095L50.95 19.4095C49.85 19.6095 48.75 20.0095 47.85 20.6095C48.15 19.5095 48.75 18.4095 49.65 17.5095ZM32.95 22.1095C34.25 20.8095 36.95 20.2095 38.45 20.4095C39.75 20.6095 42.25 22.0095 43.05 23.3095C43.05 23.3095 43.15 23.3095 43.15 23.4095L32.95 22.1095ZM39.05 28.3095L34.25 32.0095C34.25 30.2095 35.15 28.2095 36.95 27.0095C37.15 26.8095 37.35 26.7095 37.55 26.6095C38.65 25.9095 39.85 25.6095 41.05 25.6095C40.15 26.4095 39.55 27.3095 39.05 28.3095ZM42.45 36.8095C41.15 35.5095 40.45 33.5095 40.75 31.3095C40.75 31.0095 41.15 29.7095 41.45 29.1095C41.85 28.3095 42.85 27.1095 43.75 26.6095L42.45 36.8095ZM45.25 22.1095C45.15 22.1095 45.15 22.1095 45.25 22.1095C44.15 20.9095 43.35 18.2095 43.55 16.9095C43.65 15.5095 44.95 12.9095 46.55 12.0095L45.25 22.1095ZM47.65 27.1095C47.55 27.0095 47.55 26.9095 47.45 26.8095C48.85 28.8095 50.05 30.8095 51.05 33.0095C50.95 33.3095 50.85 33.6095 50.75 33.9095C49.85 30.8095 48.65 28.8095 47.65 27.1095ZM51.05 34.3095H51.85C53.55 38.0095 54.65 42.0095 55.35 46.0095C54.75 47.6095 54.15 49.4095 53.65 51.3095C53.45 48.4095 53.15 45.2095 52.65 41.6095C52.25 38.7095 51.65 36.3095 51.05 34.3095ZM53.75 60.6095C54.65 56.5095 56.05 50.7095 57.55 46.8095L58.55 44.4095C59.55 42.2095 60.55 40.0095 61.55 38.2095C61.65 38.2095 61.95 38.2095 61.95 38.2095C59.95 42.3095 58.45 47.6095 57.75 50.7095C57.15 53.2095 56.55 57.1095 55.95 60.2095C55.15 60.6095 54.35 60.9095 53.55 61.2095C53.65 61.0095 53.75 60.8095 53.75 60.6095ZM32.85 67.9095H25.55V53.6095C27.75 56.6095 30.25 59.0095 32.85 60.9095V67.9095ZM43.25 67.9095H35.75V62.7095C38.15 64.0095 40.65 64.8095 43.25 65.2095V67.9095ZM53.75 67.9095H46.25V65.4095C47.15 65.4095 47.95 65.4095 48.85 65.3095C50.15 65.2095 51.45 64.9095 52.75 64.5095C52.85 64.5095 52.95 64.4095 53.05 64.4095C53.25 64.3095 53.55 64.3095 53.75 64.2095V67.9095ZM64.15 67.9095H56.75V63.3095V63.0095C57.15 62.8095 57.55 62.6095 57.95 62.4095C60.45 61.1095 62.55 59.6095 64.05 58.3095V67.9095H64.15ZM74.35 67.9095H67.15V55.5095C67.25 55.4095 67.35 55.3095 67.35 55.3095C68.25 54.3095 68.95 53.3095 69.55 52.4095C71.15 50.2095 72.45 48.5095 74.35 47.4095V67.9095Z" fill="#2C68D2"/>
</svg>
