<svg width="80" height="80" viewBox="0 0 80 80" fill="none" xmlns="http://www.w3.org/2000/svg">
<path fill-rule="evenodd" clip-rule="evenodd" d="M21.6002 31.5V17.605C26.5606 13.5942 32.9134 11.2 39.9002 11.2C43.4435 11.2 47.7071 12.2097 51.7816 14.054C55.6764 15.817 59.2978 18.2973 61.9002 21.255V43.6V44.1683L62.2767 44.5939L64.1528 46.7147L64.1207 47.1102C64.0675 47.7678 63.9924 48.7069 63.9047 49.8337C63.738 51.9773 63.5258 54.8025 63.3329 57.6621C57.9799 64.808 49.5336 69.5 39.9002 69.5C30.2804 69.5 22.5252 65.3035 17.2002 58.5844V38.8587C19.8393 37.4392 21.6002 34.6661 21.6002 31.5ZM67.195 46.3246C67.195 46.3246 67.195 46.3246 65.7002 46.2L67.195 46.3246L67.2482 45.6861L66.8237 45.2062L64.9002 43.0318V20.7V20.1557L64.5511 19.738C61.5733 16.1753 57.3967 13.3027 53.0188 11.321C48.6433 9.34037 43.9569 8.20001 39.9002 8.20001C31.938 8.20001 24.6954 11.0307 19.1293 15.7566L18.6002 16.2059V16.9V31.5C18.6002 33.7633 17.1976 35.717 15.1617 36.5L14.2002 36.8698V37.9V59.1V59.6091L14.51 60.013C20.378 67.6623 29.1083 72.5 39.9002 72.5C50.7129 72.5 60.1509 67.1431 66.0133 59.0823L66.2681 58.732L66.2969 58.2998C66.4964 55.3073 66.7209 52.3132 66.8957 50.0663C66.983 48.9431 67.0579 48.0072 67.1109 47.3523C67.1374 47.0248 67.1585 46.7677 67.1729 46.5925L67.1894 46.3926L67.1936 46.3416L67.1947 46.3288L67.1949 46.3256L67.195 46.3248L67.195 46.3246ZM25.2002 40.4C25.2002 32.2814 31.7816 25.7 39.9002 25.7C48.0188 25.7 54.6002 32.2814 54.6002 40.4C54.6002 48.5186 48.0188 55.1 39.9002 55.1C31.7816 55.1 25.2002 48.5186 25.2002 40.4ZM39.9002 22.7C30.1248 22.7 22.2002 30.6246 22.2002 40.4C22.2002 50.1755 30.1248 58.1 39.9002 58.1C49.6756 58.1 57.6002 50.1755 57.6002 40.4C57.6002 30.6246 49.6756 22.7 39.9002 22.7Z" fill="#2C68D2"/>
<path fill-rule="evenodd" clip-rule="evenodd" d="M64.7998 14.3C64.7998 11.1612 67.0244 8.53724 69.9998 7.86624V45.9V46.0022L70.0137 46.1034C71.3091 55.5699 72.1998 68.4954 72.1998 70C72.1998 71.5908 70.7545 73.1 68.7998 73.1C66.8451 73.1 65.3998 71.5908 65.3998 70C65.3998 68.3785 65.5734 66.248 65.8099 63.3454C65.9274 61.9037 66.0603 60.2716 66.1953 58.4167C66.4456 55.4119 66.6708 52.4092 66.8334 50.1581C66.9148 49.0313 66.9805 48.0922 67.0259 47.4346C67.0486 47.1058 67.0663 46.8473 67.0782 46.671L67.0918 46.4694L67.0953 46.4176L67.0962 46.4044L67.0964 46.401L67.0965 46.4001L67.0965 46.3999C67.0965 46.3998 67.0965 46.3998 65.5998 46.3L67.0965 46.3998L67.1381 45.7751L66.7233 45.3061L64.7998 43.1318V14.3ZM62.1763 44.6939L64.0608 46.8242L64.0331 47.2279C63.9878 47.8829 63.9223 48.8188 63.8412 49.942C63.6789 52.1889 63.4544 55.1829 63.205 58.1754L63.2043 58.1833L63.2038 58.1912C63.0775 59.9271 62.9495 61.5005 62.8338 62.922C62.5891 65.9276 62.3998 68.2539 62.3998 70C62.3998 73.4092 65.3545 76.1 68.7998 76.1C72.2451 76.1 75.1998 73.4092 75.1998 70C75.1998 68.3107 74.297 55.3226 72.9998 45.7981V6.20001V4.70001H71.4998C66.1954 4.70001 61.7998 8.94772 61.7998 14.3V43.7V44.2683L62.1763 44.6939ZM7.7998 5.5V17.3H11.4998V5.5H14.4998V17.3H18.5997V17V5.5H21.5997V17V17.3H21.5998V18.8V31.5C21.5998 34.6661 19.8389 37.4391 17.1998 38.8587V71.4C17.1998 73.6933 15.3629 75.7 12.8998 75.7C10.4714 75.7 8.5998 73.8284 8.5998 71.4V38.4688L8.59881 38.4682C6.26383 36.9935 4.7998 34.4149 4.7998 31.5V18.8V18.8V17.3V5.5H7.7998ZM7.7998 20.3V31.5C7.7998 33.3662 8.71711 34.974 10.1569 35.9037C10.2515 35.9559 10.33 36.0069 10.3834 36.0425C10.4169 36.0649 10.4497 36.0874 10.4741 36.1041L10.4742 36.1041L10.4746 36.1045L10.4787 36.1073C10.5063 36.1262 10.5258 36.1395 10.5443 36.1519C10.57 36.169 10.5861 36.1788 10.5945 36.1837L11.5998 36.5188V37.6V71.4C11.5998 72.1716 12.1282 72.7 12.8998 72.7C13.6367 72.7 14.1998 72.1067 14.1998 71.4V37.9V36.8698L15.1613 36.5C17.1972 35.717 18.5998 33.7633 18.5998 31.5V20.3H7.7998Z" fill="#2C68D2"/>
</svg>
