<svg width="80" height="80" viewBox="0 0 80 80" fill="none" xmlns="http://www.w3.org/2000/svg">
<path fill-rule="evenodd" clip-rule="evenodd" d="M21.7498 12.7506H20.5998V13.657C18.9424 13.9249 17.747 14.6803 16.918 15.7425C16.269 16.574 15.8911 17.5378 15.6502 18.4496H14.6998H13.5498V19.5996V20.3996V21.5496H14.6998H14.75V35.9651C14.0046 34.9768 12.9615 34.2215 11.749 33.8355C11.7817 33.6958 11.799 33.5501 11.799 33.4004C11.799 32.3511 10.9484 31.5004 9.89902 31.5004C8.84968 31.5004 7.99902 32.3511 7.99902 33.4004C7.99902 33.5502 8.01637 33.696 8.04916 33.8359C6.08194 34.4625 4.56096 36.0612 4.03415 38.05H2.49961H1.34961V39.2V40V41.15H2.49961H2.84961V66.3996V67.5496H3.99961H15.5996H16.7496L21.9998 67.5496H23.1498V66.3996V59.8996C23.1498 58.3731 24.2949 57.2496 25.5998 57.2496C26.2408 57.2496 26.7609 57.487 27.2866 58.0128C27.7622 58.4883 28.0498 59.192 28.0498 59.8996V66.3996V67.5496H29.1998H35.4998H36.6498V66.3996V58.1996C36.6498 56.0691 38.1987 54.5496 39.9998 54.5496C40.9815 54.5496 41.7652 54.9166 42.3403 55.5636C42.9638 56.2651 43.3498 57.1969 43.3498 58.1996V66.3996V67.5496H44.4998H51.1998H52.3498V66.3996V59.8996C52.3498 58.3731 53.4949 57.2496 54.7998 57.2496C55.358 57.2496 55.9748 57.5009 56.4866 58.0128C56.9622 58.4883 57.2498 59.192 57.2498 59.8996V66.3996V67.5496H58.3998L63.1494 67.5496H64.2994H75.8994H77.0494V66.3996V41.15H77.4996H78.6496V40V39.2V38.05H77.4996H75.9651C75.4466 36.0924 73.9648 34.5127 72.0423 33.8661C72.0799 33.7171 72.0998 33.5611 72.0998 33.4004C72.0998 32.351 71.2492 31.5004 70.1998 31.5004C69.1505 31.5004 68.2998 32.351 68.2998 33.4004C68.2998 33.5399 68.3149 33.6758 68.3434 33.8067C67.0915 34.183 66.0143 34.9511 65.25 35.9642V33.7496H65.3998H66.5498V32.5996V32.0996V30.9496H65.3998H64.0869C63.9216 30.3791 63.6721 29.7538 63.2595 29.2004C62.705 28.4566 61.9161 27.9128 60.8496 27.6782V27.0645H58.2496V27.6947C57.2407 27.9277 56.4715 28.4324 55.9129 29.1338C55.4626 29.6993 55.1905 30.3451 55.012 30.9496H53.6998H52.5498V32.0996V32.5996V33.7496H53.6998H53.75V35.65H52.8995H52.8985H52.8973H52.8961H52.8947H52.8937H52.8925H52.8912H52.8899H52.8884H52.8868H52.8852H52.8834H52.8815H52.8796H52.8786H52.8775H52.8765H52.8754H52.8743H52.8731H52.872H52.8708H52.8696H52.8684H52.8671H52.8658H52.8646H52.8632H52.8619H52.8605H52.8591H52.8577H52.8563H52.8548H52.8534H52.8519H52.8504H52.8488H52.8472H52.8457H52.8441H52.8424H52.8408H52.8391H52.8374H52.8357H52.834H52.8322H52.8304H52.8286H52.8268H52.825H52.8231H52.8212H52.8193H52.8174H52.8155H52.8135H52.8115H52.8095H52.8075H52.8055H52.8034H52.8013H52.7992H52.7971H52.795H52.7928H52.7906H52.7884H52.7862H52.784H52.7817H52.7795H52.7772H52.7749H52.7725H52.7702H52.7678H52.7654H52.763H52.7606H52.7582H52.7557H52.7533H52.7508H52.7483H52.7457H52.7432H52.7406H52.7381H52.7355H52.7329H52.7302H52.7276H52.7249H52.7222H52.7196H52.7168H52.7141H52.7114H52.7086H52.7058H52.703H52.7002H52.6974H52.6946H52.6917H52.6889H52.686H52.6831H52.6802H52.6772H52.6743H52.6713H52.6683H52.6653H52.6623H52.6593H52.6563H52.6532H52.6502H52.6471H52.644H52.6409H52.6378H52.6346H52.6315H52.6283H52.6251H52.622H52.6188H52.6155H52.6123H52.6091H52.6058H52.6025H52.5993H52.596H52.5926H52.5893H52.586H52.5826H52.5793H52.5759H52.5725H52.5691H52.5657H52.5623H52.5589H52.5554H52.552H52.5485H52.545H52.5415H52.538H52.5345H52.531H52.5275H52.5239H52.5204H52.5168H52.5132H52.5096H52.506H52.5024H52.4988H52.4952H52.4915H52.4879H52.4842H52.4806H52.4769H52.4732H52.4695H52.4658H52.4621H52.4583H52.4546H52.4508H52.4471H52.4433H52.4395H52.4358H52.432H52.4282H52.4244H52.4205H52.4167H52.4129H52.409H52.4052H52.4013H52.3975H52.3936H52.3897H52.3858H52.3819H52.378H52.3741H52.3702H52.3662H52.3623H52.3584H52.3544H52.3505H52.3465H52.3425H52.3386H52.3346H52.3306H52.3266H52.3226H52.3186H52.3146H52.3105H52.3065H52.3025H52.2985H52.2944H52.2904H52.2863H52.2822H52.2782H52.2741H52.27H52.266H52.2619H52.2578H52.2537H52.2496H52.2455H52.2414H52.2373H52.2331H52.229H52.2249H52.2208H52.2166H52.2125H52.2084H52.2042H52.2001H52.1959H52.1918H52.1876H52.1834H52.1793H52.1751H52.1709H52.1668H52.1626H52.1584H52.1542H52.15H52.1459H52.1417H52.1375H52.1333H52.1291H52.1249H52.1207H52.1165H52.1123H52.1081H52.1039H52.0997H52.0955H52.0912H52.087H52.0828H52.0786H52.0744H52.0702H52.066H52.0617H52.0575H52.0533H52.0491H52.0449H52.0407H52.0364H52.0322H52.028H52.0238H52.0196H52.0153H52.0111H52.0069H52.0027H51.9985H51.9943H51.99H51.9858H51.9816H51.9774H51.9732H51.969H51.9648H51.9606H51.9564H51.9522H51.948H51.9438H51.9396H51.9354H51.9312H51.927H51.9228H51.9186H51.9144H51.9103H51.9061H51.9019H51.8977H51.8936H51.8894H51.8852H51.8811H51.8769H51.8728H51.8686H51.8645H51.8603H51.8562H51.8521H51.8479H51.8438H51.8397H51.8356H51.8314H51.8273H51.8232H51.8191H51.815H51.8109H51.8069H51.8028H51.7987H51.7946H51.7906H51.7865H51.7824H51.7784H51.7743H51.7703H51.7663H51.7622H51.7582H51.7542H51.7502H51.7462H51.7422H51.7382H51.7342H51.7302H51.7263H51.7223H51.7183H51.7144H51.7104H51.7065H51.7026H51.6987H51.6947H51.6908H51.6869H51.683H51.6791H51.6753H51.6714H51.6675H51.6637H51.6598H51.656H51.6522H51.6483H51.6445H51.6407H51.6369H51.6331H51.6294H51.6256H51.6218H51.6181H51.6143H51.6106H51.6069H51.6032H51.5995H51.5958H51.5921H51.5884H51.5848H51.5811H51.5775H51.5738H51.5702H51.5666H51.563H51.5594H51.5558H51.5522H51.5487H51.5451H51.5416H51.5381H51.5345H51.531H51.5275H51.5241H51.5206H51.5171H51.5137H51.5102H51.5068H51.5034H51.5H51.4966H51.4932H51.4899H51.4865H51.4832H51.4799H51.4765H51.4732H51.47H51.4667H51.4634H51.4602H51.4569H51.4537H51.4505H51.4473H51.4441H51.441H51.4378H51.4347H51.4315H51.4284H51.4253H51.4222H51.4192H51.4161H51.4131H51.41H51.407H51.404H51.4011H51.3981H51.3951H51.3922H51.3893H51.3864H51.3835H51.3806H51.3777H51.3749H51.3721H51.3693H51.3665H51.3637H51.3609H51.3582H51.3554H51.3527H51.35H51.3473H51.3447H51.342H51.3394H51.3368H51.3342H51.3316H51.329H51.3265H51.3239H51.3214H51.3189H51.3164H51.314H51.3115H51.3091H51.3067H51.3043H51.3019H51.2996C51.2781 35.65 51.2102 35.6453 51.0971 35.6221C50.9901 35.6 50.8695 35.5669 50.7508 35.5258C50.6309 35.4843 50.5288 35.4402 50.4546 35.4014L50.4337 35.3902C50.4264 35.3751 50.4186 35.3585 50.4094 35.3387L50.3807 35.2764C50.3541 35.2187 50.3188 35.142 50.2782 35.0607C50.1007 34.7059 49.8191 34.2579 49.268 33.8642L49.2306 33.8375L49.1913 33.8139C48.5416 33.4241 47.6219 33.1389 46.853 32.9193C46.5878 32.8435 46.3366 32.7744 46.1014 32.7097L46.0999 32.7093L46.0992 32.7091L46.0989 32.709C45.5786 32.5659 45.1363 32.4443 44.7926 32.3192L44.778 32.3139L44.765 32.3096L44.7634 32.3089C44.7567 32.3061 44.7281 32.294 44.6739 32.2654C44.6076 32.2304 44.525 32.1824 44.4278 32.1217C44.2332 32 44.0124 31.8476 43.7979 31.6927C43.6498 31.5858 43.5097 31.4812 43.3897 31.3901C43.108 29.9693 41.8677 28.85 40.3996 28.85H40.3422L40.2852 28.8557C38.9775 28.9865 37.6929 29.9394 37.4079 31.3913C37.2883 31.4821 37.1487 31.5863 37.0013 31.6927C36.7868 31.8476 36.566 32 36.3713 32.1217C36.2742 32.1824 36.1916 32.2304 36.1253 32.2654C36.0712 32.2939 36.0434 32.3058 36.0367 32.3086L36.0351 32.3093L36.0212 32.3139L36.0066 32.3192C35.6891 32.4347 35.2858 32.5346 34.7946 32.6562L34.7944 32.6562L34.7941 32.6563C34.5311 32.7214 34.243 32.7927 33.9294 32.8761C33.175 33.0764 32.1884 33.367 31.525 33.8682C31.2649 34.0492 30.9497 34.3471 30.6933 34.6639C30.5535 34.8366 30.4053 35.0463 30.2874 35.2795C30.2619 35.3299 30.2357 35.3855 30.2104 35.4459C30.031 35.4819 29.8038 35.5156 29.5456 35.5448C29.4139 35.5596 29.2806 35.5726 29.15 35.5839V21.5496H29.1998H30.3498V20.3996V19.5996V18.4496H29.1998H28.165C27.9468 17.5541 27.6071 16.5969 27.0027 15.7709C26.1959 14.6684 24.9996 13.8978 23.2998 13.6424V12.7506H22.1498H21.7498ZM25.7793 18.4496C25.6233 17.9527 25.423 17.5069 25.1465 17.1291C24.6452 16.4439 23.7908 15.85 21.9996 15.85C20.2051 15.85 19.2849 16.4481 18.7312 17.1576C18.441 17.5293 18.2231 17.9671 18.0534 18.4496H25.7793ZM17.05 21.5496H26.85V35.65H26.8496V36.8V40.3232C25.8082 40.5585 24.997 40.9726 24.417 41.5815C23.9831 42.0371 23.7318 42.5456 23.5946 43.0496H17.05V41.15H17.1996H18.3496V40V39.2V38.05H17.1996H17.05V21.5496ZM56.0761 42.2451L56.0688 41.4626L56.05 39.4453V33.7496H62.95V38.05H62.7996H61.6496V39.2V40V41.15H62.7996H62.95V43.0504H56.4169C56.3456 42.78 56.2378 42.5051 56.0761 42.2451ZM53.75 39.4567L53.7359 37.95H52.8996H52.8985H52.8973H52.8961H52.8947H52.8937H52.8925H52.8912H52.8899H52.8884H52.8868H52.8852H52.8834H52.8815H52.8796H52.8786H52.8775H52.8765H52.8754H52.8743H52.8731H52.872H52.8708H52.8696H52.8684H52.8671H52.8658H52.8646H52.8632H52.8619H52.8605H52.8591H52.8577H52.8563H52.8548H52.8534H52.8519H52.8504H52.8488H52.8472H52.8457H52.8441H52.8424H52.8408H52.8391H52.8374H52.8357H52.834H52.8322H52.8304H52.8286H52.8268H52.825H52.8231H52.8212H52.8193H52.8174H52.8155H52.8135H52.8115H52.8095H52.8075H52.8055H52.8034H52.8013H52.7992H52.7971H52.795H52.7928H52.7906H52.7884H52.7862H52.784H52.7817H52.7795H52.7772H52.7749H52.7725H52.7702H52.7678H52.7654H52.763H52.7606H52.7582H52.7557H52.7533H52.7508H52.7483H52.7457H52.7432H52.7406H52.7381H52.7355H52.7329H52.7302H52.7276H52.7249H52.7222H52.7196H52.7168H52.7141H52.7114H52.7086H52.7058H52.703H52.7002H52.6974H52.6946H52.6917H52.6889H52.686H52.6831H52.6802H52.6772H52.6743H52.6713H52.6683H52.6653H52.6623H52.6593H52.6563H52.6532H52.6502H52.6471H52.644H52.6409H52.6378H52.6346H52.6315H52.6283H52.6251H52.622H52.6188H52.6155H52.6123H52.6091H52.6058H52.6025H52.5993H52.596H52.5926H52.5893H52.586H52.5826H52.5793H52.5759H52.5725H52.5691H52.5657H52.5623H52.5589H52.5554H52.552H52.5485H52.545H52.5415H52.538H52.5345H52.531H52.5275H52.5239H52.5204H52.5168H52.5132H52.5096H52.506H52.5024H52.4988H52.4952H52.4915H52.4879H52.4842H52.4806H52.4769H52.4732H52.4695H52.4658H52.4621H52.4583H52.4546H52.4508H52.4471H52.4433H52.4395H52.4358H52.432H52.4282H52.4244H52.4205H52.4167H52.4129H52.409H52.4052H52.4013H52.3975H52.3936H52.3897H52.3858H52.3819H52.378H52.3741H52.3702H52.3662H52.3623H52.3584H52.3544H52.3505H52.3465H52.3425H52.3386H52.3346H52.3306H52.3266H52.3226H52.3186H52.3146H52.3105H52.3065H52.3025H52.2985H52.2944H52.2904H52.2863H52.2822H52.2782H52.2741H52.27H52.266H52.2619H52.2578H52.2537H52.2496H52.2455H52.2414H52.2373H52.2331H52.229H52.2249H52.2208H52.2166H52.2125H52.2084H52.2042H52.2001H52.1959H52.1918H52.1876H52.1834H52.1793H52.1751H52.1709H52.1668H52.1626H52.1584H52.1542H52.15H52.1459H52.1417H52.1375H52.1333H52.1291H52.1249H52.1207H52.1165H52.1123H52.1081H52.1039H52.0997H52.0955H52.0912H52.087H52.0828H52.0786H52.0744H52.0702H52.066H52.0617H52.0575H52.0533H52.0491H52.0449H52.0407H52.0364H52.0322H52.028H52.0238H52.0196H52.0153H52.0111H52.0069H52.0027H51.9985H51.9943H51.99H51.9858H51.9816H51.9774H51.9732H51.969H51.9648H51.9606H51.9564H51.9522H51.948H51.9438H51.9396H51.9354H51.9312H51.927H51.9228H51.9186H51.9144H51.9103H51.9061H51.9019H51.8977H51.8936H51.8894H51.8852H51.8811H51.8769H51.8728H51.8686H51.8645H51.8603H51.8562H51.8521H51.8479H51.8438H51.8397H51.8356H51.8314H51.8273H51.8232H51.8191H51.815H51.8109H51.8069H51.8028H51.7987H51.7946H51.7906H51.7865H51.7824H51.7784H51.7743H51.7703H51.7663H51.7622H51.7582H51.7542H51.7502H51.7462H51.7422H51.7382H51.7342H51.7302H51.7263H51.7223H51.7183H51.7144H51.7104H51.7065H51.7026H51.6987H51.6947H51.6908H51.6869H51.683H51.6791H51.6753H51.6714H51.6675H51.6637H51.6598H51.656H51.6522H51.6483H51.6445H51.6407H51.6369H51.6331H51.6294H51.6256H51.6218H51.6181H51.6143H51.6106H51.6069H51.6032H51.5995H51.5958H51.5921H51.5884H51.5848H51.5811H51.5775H51.5738H51.5702H51.5666H51.563H51.5594H51.5558H51.5522H51.5487H51.5451H51.5416H51.5381H51.5345H51.531H51.5275H51.5241H51.5206H51.5171H51.5137H51.5102H51.5068H51.5034H51.5H51.4966H51.4932H51.4899H51.4865H51.4832H51.4799H51.4765H51.4732H51.47H51.4667H51.4634H51.4602H51.4569H51.4537H51.4505H51.4473H51.4441H51.441H51.4378H51.4347H51.4315H51.4284H51.4253H51.4222H51.4192H51.4161H51.4131H51.41H51.407H51.404H51.4011H51.3981H51.3951H51.3922H51.3893H51.3864H51.3835H51.3806H51.3777H51.3749H51.3721H51.3693H51.3665H51.3637H51.3609H51.3582H51.3554H51.3527H51.35H51.3473H51.3447H51.342H51.3394H51.3368H51.3342H51.3316H51.329H51.3265H51.3239H51.3214H51.3189H51.3164H51.314H51.3115H51.3091H51.3067H51.3043H51.3019H51.2996C50.8711 37.95 50.3851 37.8331 49.9984 37.6992C49.6429 37.5762 49.1309 37.3577 48.7864 37.0132C48.5804 36.8071 48.4582 36.5825 48.3866 36.4393C48.3525 36.371 48.3204 36.3013 48.2963 36.2488L48.2962 36.2486L48.2911 36.2376C48.2638 36.1782 48.2428 36.133 48.221 36.0893C48.1543 35.9559 48.0912 35.859 47.9658 35.7616C47.6083 35.5592 46.996 35.3521 46.2212 35.1308C46.0231 35.0742 45.8123 35.0162 45.5982 34.9572L45.5978 34.9571L45.5974 34.957C45.0364 34.8027 44.453 34.6421 44.0187 34.4852C43.7338 34.3873 43.4355 34.2137 43.2088 34.0721C42.9535 33.9125 42.6868 33.7274 42.4513 33.5573C42.2138 33.3858 41.9976 33.2219 41.8413 33.1014C41.7628 33.041 41.6988 32.9909 41.654 32.9556L41.6016 32.9142L41.5872 32.9028L41.5831 32.8995L41.5819 32.8985L41.1496 32.5527V32C41.1496 31.5221 40.7683 31.1853 40.4497 31.1526C39.968 31.2293 39.6496 31.6082 39.6496 32V32.5527L39.2179 32.8981L39.2161 32.8995L39.212 32.9028L39.1976 32.9142L39.1452 32.9556C39.1004 32.9909 39.0364 33.041 38.9579 33.1014C38.8016 33.2219 38.5854 33.3858 38.3479 33.5573C38.1124 33.7274 37.8457 33.9125 37.5903 34.0721C37.3636 34.2138 37.0652 34.3874 36.7802 34.4853C36.3475 34.6413 35.7457 34.7908 35.1846 34.9303L35.1844 34.9303L35.1842 34.9304L35.1837 34.9305L35.1827 34.9307L35.1825 34.9308C34.9496 34.9887 34.7237 35.0448 34.5198 35.099C33.6862 35.3204 33.1422 35.5237 32.9056 35.7078L32.8725 35.7336L32.8377 35.7567C32.8378 35.7566 32.8377 35.7567 32.8374 35.7569C32.8353 35.7585 32.8227 35.7675 32.7999 35.7862C32.7742 35.8072 32.742 35.8354 32.7053 35.8699C32.6309 35.94 32.5512 36.0242 32.4809 36.1111C32.4137 36.1942 32.3696 36.2616 32.3454 36.3068C32.2964 36.93 31.8272 37.2541 31.6718 37.3495C31.4547 37.4827 31.2169 37.5619 31.038 37.612C30.6624 37.7173 30.2071 37.7847 29.8036 37.8302C29.5827 37.8552 29.3601 37.8754 29.15 37.8916V40.1496H29.1504H29.1544H29.1583H29.1623H29.1663H29.1702H29.1742H29.1781H29.1821H29.1861H29.19H29.194H29.1979H29.2019H29.2059H29.2099H29.2138H29.2178H29.2218H29.2258H29.2297H29.2337H29.2377H29.2417H29.2457H29.2497H29.2536H29.2576H29.2616H29.2656H29.2696H29.2736H29.2776H29.2816H29.2856H29.2896H29.2936H29.2976H29.3016H29.3056H29.3096H29.3136H29.3176H29.3216H29.3257H29.3297H29.3337H29.3377H29.3417H29.3457H29.3498H29.3538H29.3578H29.3618H29.3658H29.3699H29.3739H29.3779H29.382H29.386H29.39H29.3941H29.3981H29.4021H29.4062H29.4102H29.4142H29.4183H29.4223H29.4263H29.4304H29.4344H29.4385H29.4425H29.4466H29.4506H29.4547H29.4587H29.4628H29.4668H29.4709H29.4749H29.479H29.483H29.4871H29.4911H29.4952H29.4993H29.5033H29.5074H29.5114H29.5155H29.5196H29.5236H29.5277H29.5317H29.5358H29.5399H29.5439H29.548H29.5521H29.5562H29.5602H29.5643H29.5684H29.5724H29.5765H29.5806H29.5847H29.5887H29.5928H29.5969H29.601H29.605H29.6091H29.6132H29.6173H29.6214H29.6254H29.6295H29.6336H29.6377H29.6418H29.6459H29.6499H29.654H29.6581H29.6622H29.6663H29.6704H29.6745H29.6786H29.6826H29.6867H29.6908H29.6949H29.699H29.7031H29.7072H29.7113H29.7154H29.7195H29.7236H29.7276H29.7317H29.7358H29.7399H29.744H29.7481H29.7522H29.7563H29.7604H29.7645H29.7686H29.7727H29.7768H29.7809H29.785H29.7891H29.7932H29.7973H29.8014H29.8055H29.8096H29.8137H29.8178H29.8219H29.826H29.8301H29.8342H29.8383H29.8424H29.8465H29.8506H29.8547H29.8588H29.8629H29.867H29.8711H29.8752H29.8793H29.8834H29.8875H29.8916H29.8957H29.8998V40.15H34.0181C34.4148 39.2993 35.2484 38.55 36.4996 38.55H36.9629H36.9675H36.982H36.9843H36.9996H37.0011H37.0025H37.0044H37.0056H37.0068H37.0082H37.0096H37.0112H37.0129H37.0148H37.0167H37.0187H37.0209H37.0232H37.0256H37.0281H37.0307H37.0334H37.0362H37.0392H37.0422H37.0454H37.0486H37.052H37.0555H37.0579H37.0591H37.061H37.0628H37.0651H37.0663H37.0705H37.0745H37.0787H37.0829H37.0872H37.0917H37.0962H37.1009H37.1056H37.1105H37.1154H37.1205H37.1256H37.1309H37.1363H37.1417H37.1473H37.1529H37.1587H37.1645H37.1705H37.1765H37.1827H37.1889H37.1953H37.2017H37.2082H37.2149H37.2216H37.2284H37.2353H37.2423H37.2494H37.2566H37.2639H37.2712H37.2787H37.2862H37.2939H37.3016H37.3094H37.3173H37.3253H37.3334H37.3416H37.3498H37.3582H37.3666H37.3751H37.3838H37.3924H37.4012H37.4101H37.419H37.4281H37.4372H37.4464H37.4556H37.465H37.4744H37.4839H37.4935H37.5032H37.513H37.5228H37.5327H37.5427H37.5528H37.5629H37.5732H37.5835H37.5939H37.6043H37.6148H37.6255H37.6361H37.6469H37.6577H37.6686H37.6796H37.6906H37.7018H37.7129H37.7242H37.7355H37.7469H37.7584H37.77H37.7816H37.7932H37.805H37.8168H37.8287H37.8406H37.8527H37.8647H37.8769H37.8891H37.9014H37.9137H37.9261H37.9386H37.9511H37.9637H37.9764H37.9891H38.0019H38.0147H38.0276H38.0406H38.0536H38.0667H38.0798H38.093H38.1063H38.1196H38.133H38.1464H38.1599H38.1734H38.187H38.2007H38.2144H38.2281H38.2419H38.2558H38.2697H38.2837H38.2977H38.3118H38.3259H38.3401H38.3543H38.3686H38.3829H38.3973H38.4117H38.4262H38.4407H38.4553H38.4699H38.4846H38.4993H38.514H38.5288H38.5437H38.5586H38.5735H38.5885H38.6035H38.6185H38.6336H38.6488H38.664H38.6792H38.6945H38.7098H38.7251H38.7405H38.7559H38.7714H38.7869H38.8024H38.818H38.8336H38.8493H38.865H38.8807H38.8964H38.9122H38.9281H38.9439H38.9598H38.9757H38.9917H39.0077H39.0237H39.0398H39.0559H39.072H39.0881H39.1043H39.1205H39.1367H39.153H39.1693H39.1856H39.2019H39.2183H39.2347H39.2511H39.2676H39.284H39.3005H39.317H39.3336H39.3501H39.3667H39.3834H39.4H39.4166H39.4333H39.45H39.4667H39.4835H39.5002H39.517H39.5338H39.5506H39.5674H39.5843H39.6011H39.618H39.6349H39.6518H39.6687H39.6857H39.7026H39.7196H39.7366H39.7536H39.7706H39.7876H39.8046H39.8217H39.8387H39.8558H39.8729H39.89H39.9071H39.9242H39.9413H39.9584H39.9755H39.9926H40.0098H40.0269H40.0441H40.0612H40.0784H40.0956H40.1127H40.1299H40.1471H40.1643H40.1815H40.1986H40.2158H40.233H40.2502H40.2674H40.2846H40.3018H40.319H40.3361H40.3533H40.3705H40.3877H40.4049H40.422H40.4392H40.4564H40.4735H40.4907H40.5078H40.525H40.5421H40.5592H40.5763H40.5934H40.6105H40.6276H40.6447H40.6618H40.6789H40.6959H40.713H40.73H40.747H40.764H40.781H40.798H40.815H40.832H40.8489H40.8658H40.8828H40.8997H40.9165H40.9334H40.9503H40.9671H40.9839H41.0007H41.0175H41.0342H41.051H41.0677H41.0844H41.1011H41.1178H41.1344H41.151H41.1676H41.1842H41.2007H41.2173H41.2338H41.2502H41.2667H41.2831H41.2995H41.3159H41.3322H41.3486H41.3649H41.3811H41.3974H41.4136H41.4298H41.4459H41.462H41.4781H41.4942H41.5102H41.5262H41.5422H41.5581H41.574H41.5899H41.6057H41.6215H41.6373H41.653H41.6687H41.6844H41.7H41.7156H41.7311H41.7466H41.7621H41.7776H41.793H41.8083H41.8236H41.8389H41.8542H41.8694H41.8845H41.8996H41.9147H41.9297H41.9447H41.9597H41.9746H41.9894H42.0042H42.019H42.0337H42.0484H42.063H42.0776H42.0921H42.1066H42.121H42.1354H42.1498H42.1641H42.1783H42.1925H42.2066H42.2207H42.2348H42.2487H42.2627H42.2766H42.2904H42.3042H42.3179H42.3315H42.3451H42.3587H42.3722H42.3856H42.399H42.4124H42.4256H42.4388H42.452H42.4651H42.4781H42.4911H42.504H42.5169H42.5297H42.5424H42.5551H42.5677H42.5803H42.5927H42.6052H42.6175H42.6298H42.6421H42.6542H42.6663H42.6784H42.6903H42.7022H42.7141H42.7258H42.7375H42.7491H42.7607H42.7722H42.7836H42.795H42.8063H42.8175H42.8286H42.8397H42.8507H42.8616H42.8724H42.8832H42.8939H42.9045H42.9151H42.9256H42.936H42.9463H42.9565H42.9667H42.9768H42.9868H42.9968H43.0066H43.0164H43.0261H43.0357H43.0453H43.0547H43.0641H43.0734H43.0826H43.0917H43.1008H43.1098H43.1186H43.1274H43.1362H43.1448H43.1533H43.1618H43.1701H43.1784H43.1866H43.1947H43.2028H43.2107H43.2185H43.2263H43.234H43.2415H43.249H43.2564H43.2637H43.2709H43.278H43.2851H43.292H43.2988H43.3056H43.3122H43.3188H43.3253H43.3316H43.3379C44.5385 38.55 45.5516 39.1816 46.0009 40.15H50.0996C50.6659 40.15 51.7087 40.1687 52.6954 40.1997C53.0506 40.2109 53.413 40.224 53.75 40.2393V39.4567ZM71.0711 33.6269C70.9812 33.6125 70.8906 33.6001 70.7994 33.5897V33.1244H69.5994V33.5702C69.5063 33.5778 69.4137 33.5874 69.3218 33.5991C69.3074 33.5352 69.2998 33.4687 69.2998 33.4004C69.2998 32.9033 69.7028 32.5004 70.1998 32.5004C70.6969 32.5004 71.0998 32.9033 71.0998 33.4004C71.0998 33.4786 71.0899 33.5545 71.0711 33.6269ZM50.0998 42.45H50.0996H45.0996H43.9496V41.3C43.9496 41.1693 43.9023 41.0741 43.8294 41.0055C43.7559 40.9365 43.6062 40.85 43.3379 40.85H43.3316H43.3253H43.3188H43.3122H43.3056H43.2988H43.292H43.2851H43.278H43.2709H43.2637H43.2564H43.249H43.2415H43.234H43.2263H43.2185H43.2107H43.2028H43.1947H43.1866H43.1784H43.1701H43.1618H43.1533H43.1448H43.1362H43.1274H43.1186H43.1098H43.1008H43.0917H43.0826H43.0734H43.0641H43.0547H43.0453H43.0357H43.0261H43.0164H43.0066H42.9968H42.9868H42.9768H42.9667H42.9565H42.9463H42.936H42.9256H42.9151H42.9045H42.8939H42.8832H42.8724H42.8616H42.8507H42.8397H42.8286H42.8175H42.8063H42.795H42.7836H42.7722H42.7607H42.7491H42.7375H42.7258H42.7141H42.7022H42.6903H42.6784H42.6663H42.6542H42.6421H42.6298H42.6175H42.6052H42.5927H42.5803H42.5677H42.5551H42.5424H42.5297H42.5169H42.504H42.4911H42.4781H42.4651H42.452H42.4388H42.4256H42.4124H42.399H42.3856H42.3722H42.3587H42.3451H42.3315H42.3179H42.3042H42.2904H42.2766H42.2627H42.2487H42.2348H42.2207H42.2066H42.1925H42.1783H42.1641H42.1498H42.1354H42.121H42.1066H42.0921H42.0776H42.063H42.0484H42.0337H42.019H42.0042H41.9894H41.9746H41.9597H41.9447H41.9297H41.9147H41.8996H41.8845H41.8694H41.8542H41.8389H41.8236H41.8083H41.793H41.7776H41.7621H41.7466H41.7311H41.7156H41.7H41.6844H41.6687H41.653H41.6373H41.6215H41.6057H41.5899H41.574H41.5581H41.5422H41.5262H41.5102H41.4942H41.4781H41.462H41.4459H41.4298H41.4136H41.3974H41.3811H41.3649H41.3486H41.3322H41.3159H41.2995H41.2831H41.2667H41.2502H41.2338H41.2173H41.2007H41.1842H41.1676H41.151H41.1344H41.1178H41.1011H41.0844H41.0677H41.051H41.0342H41.0175H41.0007H40.9839H40.9671H40.9503H40.9334H40.9165H40.8997H40.8828H40.8658H40.8489H40.832H40.815H40.798H40.781H40.764H40.747H40.73H40.713H40.6959H40.6789H40.6618H40.6447H40.6276H40.6105H40.5934H40.5763H40.5592H40.5421H40.525H40.5078H40.4907H40.4735H40.4564H40.4392H40.422H40.4049H40.3877H40.3705H40.3533H40.3361H40.319H40.3018H40.2846H40.2674H40.2502H40.233H40.2158H40.1986H40.1815H40.1643H40.1471H40.1299H40.1127H40.0956H40.0784H40.0612H40.0441H40.0269H40.0098H39.9926H39.9755H39.9584H39.9413H39.9242H39.9071H39.89H39.8729H39.8558H39.8387H39.8217H39.8046H39.7876H39.7706H39.7536H39.7366H39.7196H39.7026H39.6857H39.6687H39.6518H39.6349H39.618H39.6011H39.5843H39.5674H39.5506H39.5338H39.517H39.5002H39.4835H39.4667H39.45H39.4333H39.4166H39.4H39.3834H39.3667H39.3501H39.3336H39.317H39.3005H39.284H39.2676H39.2511H39.2347H39.2183H39.2019H39.1856H39.1693H39.153H39.1367H39.1205H39.1043H39.0881H39.072H39.0559H39.0398H39.0237H39.0077H38.9917H38.9757H38.9598H38.9439H38.9281H38.9122H38.8964H38.8807H38.865H38.8493H38.8336H38.818H38.8024H38.7869H38.7714H38.7559H38.7405H38.7251H38.7098H38.6945H38.6792H38.664H38.6488H38.6336H38.6185H38.6035H38.5885H38.5735H38.5586H38.5437H38.5288H38.514H38.4993H38.4846H38.4699H38.4553H38.4407H38.4262H38.4117H38.3973H38.3829H38.3686H38.3543H38.3401H38.3259H38.3118H38.2977H38.2837H38.2697H38.2558H38.2419H38.2281H38.2144H38.2007H38.187H38.1734H38.1599H38.1464H38.133H38.1196H38.1063H38.093H38.0798H38.0667H38.0536H38.0406H38.0276H38.0147H38.0019H37.9891H37.9764H37.9637H37.9511H37.9386H37.9261H37.9137H37.9014H37.8891H37.8769H37.8647H37.8527H37.8406H37.8287H37.8168H37.805H37.7932H37.7816H37.77H37.7584H37.7469H37.7355H37.7242H37.7129H37.7018H37.6906H37.6796H37.6686H37.6577H37.6469H37.6361H37.6255H37.6148H37.6043H37.5939H37.5835H37.5732H37.5629H37.5528H37.5427H37.5327H37.5228H37.513H37.5032H37.4935H37.4839H37.4744H37.465H37.4556H37.4464H37.4372H37.4281H37.419H37.4101H37.4012H37.3924H37.3838H37.3751H37.3666H37.3582H37.3498H37.3416H37.3334H37.3253H37.3173H37.3094H37.3016H37.2939H37.2862H37.2787H37.2712H37.2639H37.2566H37.2494H37.2423H37.2353H37.2284H37.2216H37.2149H37.2082H37.2017H37.1953H37.1889H37.1827H37.1765H37.1705H37.1645H37.1587H37.1529H37.1473H37.1417H37.1363H37.1309H37.1256H37.1205H37.1154H37.1105H37.1056H37.1009H37.0962H37.0917H37.0872H37.0829H37.0787H37.0745H37.0705H37.0666H37.0651H37.0628H37.061H37.0591H37.0579H37.0555H37.052H37.0486H37.0454H37.0422H37.0392H37.0362H37.0334H37.0307H37.0281H37.0256H37.0232H37.0209H37.0187H37.0167H37.0148H37.0129H37.0112H37.0096H37.0082H37.0068H37.0056H37.0044H37.0034H37.0017H37.0005H36.9843H36.982H36.9675H36.9637H36.4996C36.3509 40.85 36.2574 40.9043 36.1818 40.9914C36.0855 41.1024 36.0496 41.2371 36.0496 41.3V42.45H34.8996H29.8996C29.4818 42.45 29.1372 42.4509 28.8257 42.4677L28.1613 42.5389L27.1947 42.7C26.5596 42.8571 26.2321 43.0688 26.0632 43.2378C25.8549 43.4461 25.75 43.7269 25.75 44.1996V45.3496H24.6L16.8498 45.3496V46.1996V65.2496H20.8498V59.8996C20.8498 57.2261 22.9048 54.9496 25.5998 54.9496C26.9588 54.9496 28.0387 55.5122 28.913 56.3864C29.8374 57.3109 30.3498 58.6072 30.3498 59.8996V65.2496H34.3498V58.1996C34.3498 54.9301 36.8009 52.2496 39.9998 52.2496C41.6181 52.2496 43.0344 52.8826 44.0593 54.0356C45.0358 55.1341 45.6498 56.6023 45.6498 58.1996V65.2496H50.0498V59.8996C50.0498 57.2261 52.1048 54.9496 54.7998 54.9496C56.0416 54.9496 57.2248 55.4982 58.113 56.3864C59.0374 57.3109 59.5498 58.6072 59.5498 59.8996V65.2496H63.1494V45.4496H55.3998H54.2498V44.2996C54.2498 43.8567 54.1838 43.6455 54.0018 43.418C53.8609 43.2418 53.7086 43.093 53.5113 42.9692C53.3142 42.8456 53.0342 42.7232 52.6142 42.6469C52.0054 42.5362 51.1488 42.4582 50.0998 42.4582V42.45ZM19.6502 37.7V32.8H24.2502V37.7H19.6502ZM24.2502 24.5V28.8H19.6502V24.5C19.6502 23.5 20.6502 22.7 21.9502 22.7C23.2502 22.7 24.2502 23.5 24.2502 24.5ZM74.7494 65.2496H65.4498V45.4496V44.2996V44.1996H65.4494V41.2496H74.7494V65.2496ZM10.4996 33.5791C10.5917 33.5881 10.6832 33.5991 10.774 33.6121C10.7903 33.5442 10.799 33.4733 10.799 33.4004C10.799 32.9033 10.3961 32.5004 9.89902 32.5004C9.40197 32.5004 8.99902 32.9033 8.99902 33.4004C8.99902 33.4734 9.00771 33.5444 9.02412 33.6123C9.11529 33.5992 9.20714 33.5881 9.29962 33.5791V33.0004H10.4996V33.5791ZM9.89964 35.85C11.4359 35.85 12.7421 36.7598 13.3309 38.05H6.46842C7.05721 36.7598 8.36337 35.85 9.89964 35.85ZM5.14961 65.2496V41.2496H14.4496V65.2496H5.14961ZM73.5309 38.05C72.9421 36.7598 71.6359 35.85 70.0997 35.85C68.5634 35.85 67.2572 36.7598 66.6684 38.05H73.5309ZM57.469 30.9496H61.6402C61.5745 30.8141 61.5005 30.689 61.4155 30.575C61.1428 30.2092 60.6767 29.8502 59.6 29.8502C58.4994 29.8502 58.0016 30.203 57.7121 30.5666C57.6207 30.6813 57.5404 30.8093 57.469 30.9496ZM57.6998 37.8C57.6998 36.7343 58.2184 35.8984 59.4098 35.8984C60.6012 35.8984 61.1139 36.7343 61.1139 37.8V41.4H59.4069H57.6998V37.8ZM68.4928 45.4094C68.4928 44.3437 69.0114 43.5078 70.2028 43.5078C71.3942 43.5078 71.9069 44.3437 71.9069 45.4094V49.0094H70.1998H68.4928V45.4094ZM9.85217 43.5078C8.66077 43.5078 8.14221 44.3437 8.14221 45.4094V49.0094H9.84924H11.5563V45.4094C11.5563 44.3437 11.0436 43.5078 9.85217 43.5078Z" fill="white"/>
</svg>
