<?xml version="1.0" encoding="utf-8"?>
<!-- Generator: Adobe Illustrator 29.1.0, SVG Export Plug-In . SVG Version: 9.03 Build 55587)  -->
<svg version="1.0" id="Layer_2_00000167389015913269368940000016834485335235256466_"
	 xmlns="http://www.w3.org/2000/svg" xmlns:xlink="http://www.w3.org/1999/xlink" x="0px" y="0px" viewBox="0 0 40 40"
	 enable-background="new 0 0 40 40" xml:space="preserve">
<path display="none" d="M35,21H5c-0.6,0-1-0.4-1-1s0.4-1,1-1h30c0.6,0,1,0.4,1,1S35.6,21,35,21z M36,27.9c0-0.6-0.4-1-1-1H5
	c-0.6,0-1,0.4-1,1s0.4,1,1,1h30C35.6,28.9,36,28.5,36,27.9z M36,12.1c0-0.6-0.4-1-1-1H5c-0.6,0-1,0.4-1,1s0.4,1,1,1h30
	C35.6,13.1,36,12.7,36,12.1z"/>
<path display="none" fill="#231F20" d="M35.7,16.8l-2.3-9.9C33.2,5.8,32.1,5,30.9,5H9.1C7.9,5,6.8,5.8,6.5,6.9l-2.3,9.9
	c-0.2,0.8,0,1.5,0.4,2.1c0.4,0.5,1.1,0.8,1.9,0.8h0.2v12.5c0,1.4,1.1,2.5,2.5,2.5h21.5c1.4,0,2.5-1.1,2.5-2.5V19.7h0.2
	c0.7,0,1.4-0.3,1.8-0.9C35.7,18.3,35.9,17.5,35.7,16.8z M16.9,7h6.3l0.5,10.7h-7.3L16.9,7z M6.8,17.7L6.8,17.7l-0.2,0
	c-0.1,0-0.2,0-0.3-0.1c0-0.1-0.1-0.2,0-0.4l2.3-9.9C8.5,7.2,8.8,7,9.1,7h5.7l-0.5,10.7H6.8z M31.2,32.2c0,0.3-0.2,0.5-0.5,0.5H9.3
	c-0.3,0-0.5-0.2-0.5-0.5V19.7h22.5V32.2z M33.7,17.6c0,0-0.1,0.1-0.3,0.1h-0.2v0h-7.6L25.1,7h5.7c0.3,0,0.6,0.2,0.6,0.4l2.3,9.9
	C33.8,17.4,33.8,17.5,33.7,17.6z M15.8,26.3c0-0.6,0.4-1,1-1h6.5c0.6,0,1,0.4,1,1s-0.4,1-1,1h-6.5C16.2,27.3,15.8,26.8,15.8,26.3z"
	/>
<path fill="#231F20" d="M34.5,32.2l-7.7-7.7c1.5-2.1,2.5-4.6,2.5-7.4c0-6.9-5.6-12.5-12.5-12.5S4.3,10.2,4.3,17.1
	c0,6.9,5.6,12.5,12.5,12.5c3,0,5.8-1.1,8-2.9l7.6,7.6c0.3,0.3,0.7,0.4,1.1,0.4s0.8-0.1,1.1-0.4C35.1,33.7,35.1,32.7,34.5,32.2z
	 M6.3,17.1c0-5.8,4.7-10.5,10.5-10.5c5.8,0,10.5,4.7,10.5,10.5s-4.7,10.5-10.5,10.5C11,27.6,6.3,22.9,6.3,17.1z"/>
</svg>
