<svg width="80" height="80" viewBox="0 0 80 80" fill="none" xmlns="http://www.w3.org/2000/svg">
<g filter="url(#filter0_d_1308_17700)">
<path d="M24.3614 41.8101L52.2264 68.3601C52.6914 68.8033 53.3091 69.0505 53.9514 69.0505C54.5938 69.0505 55.2115 68.8033 55.6764 68.3601L55.7064 68.3301C55.9326 68.1152 56.1127 67.8566 56.2358 67.5699C56.3588 67.2832 56.4223 66.9745 56.4223 66.6626C56.4223 66.3506 56.3588 66.0419 56.2358 65.7552C56.1127 65.4686 55.9326 65.2099 55.7064 64.9951L29.4664 39.9951L55.7064 15.0051C55.9326 14.7902 56.1127 14.5316 56.2358 14.2449C56.3588 13.9582 56.4223 13.6495 56.4223 13.3376C56.4223 13.0256 56.3588 12.7169 56.2358 12.4302C56.1127 12.1436 55.9326 11.8849 55.7064 11.6701L55.6764 11.6401C55.2115 11.1968 54.5938 10.9496 53.9514 10.9496C53.3091 10.9496 52.6914 11.1968 52.2264 11.6401L24.3614 38.1901C24.1164 38.4235 23.9213 38.7044 23.788 39.0155C23.6547 39.3266 23.5859 39.6616 23.5859 40.0001C23.5859 40.3385 23.6547 40.6735 23.788 40.9846C23.9213 41.2958 24.1164 41.5766 24.3614 41.8101Z" fill="white"/>
</g>
<defs>
<filter id="filter0_d_1308_17700" x="21.5859" y="10.9495" width="36.8359" height="62.1011" filterUnits="userSpaceOnUse" color-interpolation-filters="sRGB">
<feFlood flood-opacity="0" result="BackgroundImageFix"/>
<feColorMatrix in="SourceAlpha" type="matrix" values="0 0 0 0 0 0 0 0 0 0 0 0 0 0 0 0 0 0 127 0" result="hardAlpha"/>
<feOffset dy="2"/>
<feGaussianBlur stdDeviation="1"/>
<feComposite in2="hardAlpha" operator="out"/>
<feColorMatrix type="matrix" values="0 0 0 0 0 0 0 0 0 0 0 0 0 0 0 0 0 0 0.15 0"/>
<feBlend mode="normal" in2="BackgroundImageFix" result="effect1_dropShadow_1308_17700"/>
<feBlend mode="normal" in="SourceGraphic" in2="effect1_dropShadow_1308_17700" result="shape"/>
</filter>
</defs>
</svg>
