<?xml version="1.0" encoding="UTF-8"?>
<svg id="Layer_2" xmlns="http://www.w3.org/2000/svg" version="1.1" viewBox="0 0 40 40">
  <!-- Generator: Adobe Illustrator 29.1.0, SVG Export Plug-In . SVG Version: 2.1.0 Build 142)  -->
  <defs>
    <style>
      .st0, .st1 {
        fill: #231f20;
      }

      .st1, .st2 {
        display: none;
      }
    </style>
  </defs>
  <path class="st2" d="M35,21H5c-.6,0-1-.4-1-1s.4-1,1-1h30c.6,0,1,.4,1,1s-.4,1-1,1ZM36,27.9c0-.6-.4-1-1-1H5c-.6,0-1,.4-1,1s.4,1,1,1h30c.6,0,1-.4,1-1ZM36,12.1c0-.6-.4-1-1-1H5c-.6,0-1,.4-1,1s.4,1,1,1h30c.6,0,1-.4,1-1Z"/>
  <path class="st0" d="M35.7,16.8l-2.3-9.9c-.3-1.1-1.3-1.9-2.6-1.9H9.1c-1.2,0-2.3.8-2.6,1.9l-2.3,9.9c-.2.8,0,1.5.4,2.1.4.5,1.1.8,1.9.8h.2v12.5c0,1.4,1.1,2.5,2.5,2.5h21.5c1.4,0,2.5-1.1,2.5-2.5v-12.5h.2c.7,0,1.4-.3,1.8-.9.4-.6.6-1.3.4-2.1ZM16.9,7h6.3l.5,10.7h-7.3l.5-10.7ZM6.8,17.7h0s-.2,0-.2,0c-.1,0-.2,0-.3,0,0,0,0-.2,0-.4l2.3-9.9c0-.2.3-.4.6-.4h5.7l-.5,10.7h-7.6ZM31.2,32.2c0,.3-.2.5-.5.5H9.3c-.3,0-.5-.2-.5-.5v-12.5h22.5v12.5ZM33.7,17.6s0,0-.3,0h-.2s-7.6,0-7.6,0l-.5-10.7h5.7c.3,0,.6.2.6.4l2.3,9.9c0,.1,0,.3,0,.4ZM15.8,26.3c0-.6.4-1,1-1h6.5c.6,0,1,.4,1,1s-.4,1-1,1h-6.5c-.6,0-1-.4-1-1Z"/>
  <path class="st1" d="M34.5,32.2l-7.7-7.7c1.5-2.1,2.5-4.6,2.5-7.4,0-6.9-5.6-12.5-12.5-12.5s-12.5,5.6-12.5,12.5,5.6,12.5,12.5,12.5,5.8-1.1,8-2.9l7.6,7.6c.3.3.7.4,1.1.4s.8-.1,1.1-.4c.6-.6.6-1.5,0-2.1ZM6.3,17.1c0-5.8,4.7-10.5,10.5-10.5s10.5,4.7,10.5,10.5-4.7,10.5-10.5,10.5-10.5-4.7-10.5-10.5Z"/>
</svg>