<?xml version="1.0" encoding="utf-8"?>
<!-- Generator: Adobe Illustrator 24.0.2, SVG Export Plug-In . SVG Version: 6.00 Build 0)  -->
<svg version="1.1" id="Layer_1" xmlns="http://www.w3.org/2000/svg" xmlns:xlink="http://www.w3.org/1999/xlink" x="0px" y="0px"
	 viewBox="0 0 88 40" style="enable-background:new 0 0 88 40;" xml:space="preserve">
<style type="text/css">
	.st0{fill:#1F5091;}
	.st1{fill:#FFFFFF;}
</style>
<g id="logo">
	<path class="st0" d="M88,4c0,0,0.1-1.8-1-2.8c-0.9-0.7-2.1-0.9-3.6-0.4L45.6,11c-0.2,0.1-0.8,0.2-1.6,0.2c-0.7,0-1.4-0.1-1.6-0.2
		L4.6,0.7C3.1,0.3,1.9,0.5,1,1.2C-0.1,2.1,0,4,0,4v33.7c0,0.6-0.1,1.1,0.3,1.5c0.4,0.3,0.9,0.3,1.5,0.3h84.3c0.7,0,1.2,0,1.5-0.3
		c0.4-0.4,0.3-0.9,0.3-1.5V4z"/>
	<polygon class="st1" points="28.7,16.1 31.2,16.1 31.2,13 25.7,13 19.5,24.3 13.2,13 7.7,13 7.7,16.1 10.2,16.1 9.5,30.2 7.1,30.2 
		7.1,33.3 15.4,33.3 15.4,30.2 13,30.2 13.4,19.7 19.2,29.9 19.6,29.9 25.4,19.7 25.8,30.2 23.4,30.2 23.4,33.3 31.7,33.3 
		31.7,30.2 29.3,30.2 	"/>
	<g>
		<path class="st1" d="M45.8,24.8c0-1.4-0.3-2.5-1.1-3.4c-1-1.2-2.5-1.8-4.9-1.8c-3.7,0-5.4,1.8-5.4,3.4c0,1.1,0.8,1.8,1.8,1.8
			c1,0,1.8-0.7,1.8-1.8c0-0.2-0.1-0.5-0.1-0.7c0.3-0.1,0.7-0.2,1.3-0.2c1.2,0,2.1,0.3,2.7,1c0.3,0.4,0.5,1.1,0.5,1.9v1.1
			c-0.8-0.2-2-0.4-3.4-0.4c-3.2,0-5.4,1.5-5.4,4.1s2.1,3.8,4.4,3.8c1.8,0,3.5-0.8,4.5-1.7v1.5h5.2v-2.8h-2V24.8L45.8,24.8z
			 M42.5,29.9c-1,0.7-2.2,1.2-3.4,1.2c-1.2,0-2-0.6-2-1.7c0-1.2,1-2,2.6-2c1,0,2,0.1,2.8,0.3C42.5,27.8,42.5,29.9,42.5,29.9z"/>
		<path class="st1" d="M56,19.5c-4.2,0-6.9,3.2-6.9,7c0,4.2,3.1,7,7.5,7c2,0,3.7-0.4,5.1-1.2l0.3-3c-1.6,0.9-3.3,1.4-4.9,1.4
			c-2.3,0-4-0.9-4.4-3h9.8c0.1-0.5,0.1-1.1,0.1-1.7C62.6,22.4,60.3,19.5,56,19.5 M52.6,25.4c0.4-2.2,1.8-3.1,3.3-3.1
			c2,0,3.2,1.2,3.2,3.1H52.6z"/>
		<path class="st1" d="M67.9,17.7c1.2,0,2.3-1,2.3-2.2c0-1.2-1-2.2-2.2-2.2s-2.3,1-2.3,2.2S66.7,17.7,67.9,17.7"/>
	</g>
	<polygon class="st1" points="70,19.8 64.5,19.8 64.5,22.6 66.6,22.6 66.6,30.5 64.5,30.5 64.5,33.3 72,33.3 72,30.5 70,30.5 	"/>
	<polygon class="st1" points="79.2,11.5 73.8,11.5 73.8,14.3 75.9,14.3 75.9,30.5 73.8,30.5 73.8,33.3 81.2,33.3 81.2,30.5 
		79.2,30.5 	"/>
</g>
</svg>
